<svg width="23" height="38" viewBox="0 0 23 38" fill="none" xmlns="http://www.w3.org/2000/svg">
<path d="M9.76428 0.350082C9.28874 0.230084 8.80439 -0.00318357 8.3304 3.29222e-05C6.39744 0.00101896 5.12042 1.5666 5.42525 3.52975C5.79236 5.95058 6.16938 8.37869 6.54641 10.8068C6.91809 13.2005 7.28976 15.5941 7.66144 17.9878C7.68818 18.16 7.7069 18.2805 7.53152 18.396C6.46476 19.1088 6.05014 20.1169 6.21102 21.3793C6.25191 21.6992 6.43085 22.0594 6.31843 22.2973C6.21324 22.5253 5.81401 22.6139 5.55819 22.7772C3.81887 23.9121 3.00403 25.5116 3.23643 27.5742C3.37826 28.8837 3.63295 30.1844 3.82626 31.4859C3.88508 31.8648 3.85009 32.2053 3.539 32.4654C2.99459 32.9205 2.18343 32.6763 1.96093 31.979C1.89185 31.7605 1.81286 31.5347 1.68049 31.3613C1.39859 31.0171 0.948226 30.9461 0.555127 31.1308C0.162027 31.3154 -0.0636071 31.7297 0.015832 32.1847C0.207577 33.363 0.646013 34.4323 1.40434 35.3549C3.10563 37.427 5.30955 38.2657 7.94747 37.8816C11.083 37.4201 14.233 36.9387 17.3632 36.4428C20.1773 36.0048 21.9571 33.6026 21.5529 30.7731C21.2705 28.8417 20.9711 26.913 20.6544 24.987C20.2771 22.7265 18.5595 21.1155 16.3264 20.881C16.1025 20.8541 16.0449 20.766 16.0228 20.5667C15.9284 19.9023 15.8584 19.2254 15.4605 18.6436C15.0627 18.0618 14.5489 17.6391 13.8785 17.4524C13.5925 17.3646 13.5196 17.2349 13.4795 16.9766C12.7728 12.3687 12.0489 7.76353 11.3521 3.16295C11.2104 2.25026 11.0153 1.38996 10.3314 0.720379C10.1114 0.604712 9.93286 0.47376 9.76428 0.350082ZM9.4966 35.6917C9.49315 35.6128 9.49047 35.5956 9.49771 35.5857C9.54306 35.4816 9.59566 35.3676 9.63109 35.2563C9.95957 34.4291 10.0642 33.5751 9.93508 32.6869C9.87547 32.2465 9.53486 31.9203 9.12873 31.8512C8.71268 31.7749 8.27077 31.9847 8.10386 32.3811C8.00859 32.6164 7.98998 32.8926 8.02017 33.1437C8.08523 34.0154 7.83185 34.7603 7.2627 35.3956C6.8365 35.8764 6.33933 36.183 5.65821 35.9275C5.31269 35.796 4.94812 35.7117 4.62433 35.5504C4.16973 35.339 3.73418 35.0805 3.42978 34.7046C3.81564 34.5299 4.1996 34.3996 4.52596 34.1813C5.57556 33.4712 5.92611 32.4466 5.75342 31.2213C5.61894 30.2986 5.47455 29.3687 5.33093 28.5004C9.84376 27.7981 14.3566 27.0958 18.8694 26.3935C19.1128 27.9606 19.3786 29.5594 19.6101 31.1636C19.7526 32.1379 19.4565 33.0041 18.7654 33.7025C18.3384 34.1217 17.8313 34.4211 17.1739 34.4881C17.6435 33.5508 17.8278 32.5874 17.6826 31.5959C17.6452 31.3548 17.5338 31.0899 17.3644 30.9046C17.0878 30.595 16.6943 30.5504 16.3084 30.7251C15.9153 30.9097 15.7107 31.2326 15.7432 31.6684C15.7773 32.2275 15.7843 32.7819 15.5575 33.3022C15.1475 34.2832 14.406 34.8836 13.3501 35.1008C13.3421 35.0491 13.3295 35.0246 13.344 35.0047C13.3821 34.9106 13.413 34.8265 13.4511 34.7324C13.8139 33.8999 13.9258 33.0359 13.8138 32.145C13.7676 31.7907 13.6165 31.4967 13.2755 31.3381C12.581 30.9965 11.809 31.5135 11.8706 32.3063C11.9215 33.0303 11.8542 33.7287 11.4593 34.3545C11.0092 35.0771 10.3763 35.5283 9.4966 35.6917ZM9.61111 17.7549C9.60309 17.7033 9.58248 17.6271 9.57178 17.5582C8.8311 12.7881 8.08774 8.00078 7.34706 3.23067C7.32834 3.11013 7.30962 2.98958 7.31798 2.87364C7.35554 2.15351 8.1482 1.7127 8.76681 2.07498C9.09595 2.27067 9.22264 2.57724 9.27879 2.93887C10.0195 7.70898 10.7575 12.4619 11.4982 17.232C11.5115 17.3181 11.515 17.3969 11.5257 17.4658C10.898 17.5547 10.2731 17.6607 9.61111 17.7549ZM5.20605 26.3946C5.48484 25.1343 6.38035 24.2807 7.71876 24.0724C10.2312 23.6726 12.7464 23.29 15.2588 22.8901C15.4133 22.8661 15.5875 22.8566 15.7446 22.8498C16.82 22.8147 17.9607 23.4838 18.3228 24.3445C13.9644 25.0228 9.59877 25.711 5.20605 26.3946ZM14.0835 21.036C12.1372 21.3477 10.2154 21.6468 8.27645 21.9485C8.22565 21.6213 8.15233 21.2624 8.12326 20.9054C8.09262 20.4251 8.40405 19.9975 8.89175 19.9127C10.2103 19.6899 11.5316 19.4843 12.8555 19.2959C13.3802 19.2231 13.7993 19.5458 13.9139 20.0571C13.9918 20.3889 14.0353 20.726 14.0835 21.036Z" fill="#E8A961"/>
</svg>