<svg width="30" height="30" viewBox="0 0 30 30" fill="none" xmlns="http://www.w3.org/2000/svg">
<circle cx="14.8033" cy="14.8033" r="14.8033" fill="#4E6297"/>
<path d="M21.4656 10.2284C21.4656 9.12002 20.4877 8.14209 19.3793 8.14209H10.9691C9.86075 8.14209 8.88281 9.12002 8.88281 10.2284V18.6386C8.88281 19.7469 9.86075 20.7249 10.9691 20.7249H15.2068V15.9656H13.6421V13.8793H15.2068V13.0318C15.2068 11.5975 16.2499 10.3587 17.5539 10.3587H19.2489V12.445H17.5539C17.3583 12.445 17.1627 12.6406 17.1627 13.0318V13.8793H19.2489V15.9656H17.1627V20.7249H19.3793C20.4877 20.7249 21.4656 19.7469 21.4656 18.6386V10.2284Z" fill="white"/>
</svg>
