<svg width="31" height="30" viewBox="0 0 31 30" fill="none" xmlns="http://www.w3.org/2000/svg">
<circle cx="15.6197" cy="14.8033" r="14.8033" fill="#4E6297"/>
<path d="M22.282 10.2284C22.282 9.12002 21.3041 8.14209 20.1957 8.14209H11.7855C10.6772 8.14209 9.69922 9.12002 9.69922 10.2284V18.6386C9.69922 19.7469 10.6772 20.7249 11.7855 20.7249H16.0232V15.9656H14.4585V13.8793H16.0232V13.0318C16.0232 11.5975 17.0663 10.3587 18.3703 10.3587H20.0654V12.445H18.3703C18.1747 12.445 17.9791 12.6406 17.9791 13.0318V13.8793H20.0654V15.9656H17.9791V20.7249H20.1957C21.3041 20.7249 22.282 19.7469 22.282 18.6386V10.2284Z" fill="white"/>
</svg>
