<svg width="94" height="572" viewBox="0 0 94 572" fill="none" xmlns="http://www.w3.org/2000/svg">
<path d="M50.9704 84.6694C50.9704 77.7945 52.3764 72.9509 55.3445 69.9822C58.1565 67.0135 62.8431 65.6073 69.2481 65.6073L80.6522 65.6073L80.6522 79.8257L71.1228 79.8257C67.9984 79.8257 65.8113 80.2945 64.2491 81.0757C62.8431 82.0132 62.062 83.5757 62.062 86.0756C62.062 87.0131 62.2182 88.1068 62.3744 89.513C62.6869 90.763 62.8431 91.7005 62.9993 92.0129L80.6522 92.0129L80.6522 106.231L34.0986 106.231L34.0986 92.0129L52.0639 92.0129C51.9077 91.5442 51.5953 90.4505 51.439 88.5755C51.1266 86.7006 50.9704 85.4506 50.9704 84.6694Z" fill="black" fill-opacity="0.09"/>
<path d="M67.8421 135.762L67.8421 148.574L34.0986 148.574L34.0986 136.231L52.0639 136.231L52.0639 136.074L34.0986 126.231L34.0986 113.419L67.8421 113.419L67.8421 125.762L50.3455 125.762L50.3455 125.918L67.8421 135.762Z" fill="black" fill-opacity="0.09"/>
<path d="M47.6898 190.292C43.1594 189.667 39.5663 187.792 37.0668 184.667C34.5673 181.542 33.3175 177.48 33.3175 172.636C33.3175 167.167 34.8797 162.792 38.1603 159.355C41.441 155.918 45.5027 154.199 50.8142 154.199C56.1256 154.199 60.4998 155.918 63.7804 159.355C67.061 162.792 68.7795 167.167 68.7795 172.792C68.7795 177.636 67.5297 181.698 65.0302 184.823C62.5307 187.948 59.25 189.667 55.1883 190.136L55.1883 177.792C56.5943 177.636 57.5316 177.011 58.4689 176.23C59.25 175.292 59.7187 174.198 59.7187 172.949C59.7187 169.199 56.7505 167.324 50.9704 167.324C45.6589 167.324 43.0032 169.199 43.0032 172.948C43.0032 175.917 44.7216 177.636 48.0022 178.105L48.0022 190.292L47.6898 190.292Z" fill="black" fill-opacity="0.09"/>
<path d="M58.1565 203.729L58.1565 192.948L67.8421 192.948L67.8421 227.322L58.1565 227.322L58.1565 216.541L34.2548 216.541L34.2548 203.729L58.1565 203.729Z" fill="black" fill-opacity="0.09"/>
<path d="M34.0986 266.384L34.0986 253.259C35.1922 252.947 36.2857 252.79 37.223 252.79C34.4111 249.978 33.0051 246.384 33.0051 242.009C33.0051 238.103 33.9424 235.135 35.817 233.103C37.6917 230.916 40.3474 229.822 43.628 229.822C45.3465 229.822 46.7524 230.135 48.0022 230.916C49.252 231.541 50.1893 232.322 50.9704 233.103C51.5953 233.885 52.2201 234.978 52.845 236.853C53.4699 238.572 53.7823 239.822 53.7823 240.603C53.9386 241.384 54.0948 242.791 54.4072 244.978C54.4072 245.134 54.4072 245.134 54.4072 245.134C54.4072 245.134 54.4072 245.29 54.4072 245.447C54.4072 245.603 54.4072 245.603 54.4072 245.759C54.4072 245.915 54.5634 246.54 54.5634 247.322C54.5634 248.103 54.7197 248.728 54.7197 249.197C54.8759 249.665 55.0321 250.134 55.1883 250.759C55.3445 251.384 55.657 251.853 56.1256 252.165C56.5943 252.478 57.063 252.634 57.6878 252.634C59.7187 252.634 60.656 251.228 60.656 248.415C60.656 246.853 60.3436 245.759 59.8749 244.978C59.4063 244.353 58.4689 243.884 57.2192 243.572L57.2192 231.541C64.7177 231.853 68.467 237.478 68.467 248.415C68.467 257.009 66.4362 262.321 62.2182 264.353C60.9685 264.978 58.9376 265.29 56.1256 265.29C54.7197 265.29 52.845 265.29 50.1893 265.29C47.5335 265.29 45.3465 265.29 43.4718 265.29C39.2539 264.978 36.1295 265.446 34.0986 266.384ZM49.5644 252.478C48.9395 251.54 48.3146 249.509 47.5335 246.54C47.0649 244.197 45.8151 242.947 43.9405 242.947C42.8469 242.947 42.0658 243.259 41.441 243.884C40.8161 244.509 40.5036 245.447 40.5036 246.54C40.5036 248.884 41.441 250.603 43.1594 251.697C44.0967 252.165 45.5027 252.478 47.3773 252.478L49.5644 252.478Z" fill="black" fill-opacity="0.09"/>
<path d="M45.6589 289.664L34.0986 283.571L34.0986 268.102L46.7524 276.852C47.6898 274.509 49.252 272.79 51.1266 271.696C53.0012 270.602 55.0321 270.134 56.9067 270.134C60.1874 270.134 62.8431 271.384 64.874 273.884C66.9048 276.384 67.8421 279.977 67.8421 284.821L67.8421 304.508L34.0986 304.508L34.0986 291.696L45.6589 291.696L45.6589 289.664ZM53.1575 291.696L60.3436 291.696L60.3436 288.102C60.3436 284.977 59.0938 283.571 56.7505 283.571C54.251 283.571 53.1575 285.133 53.1575 288.102L53.1575 291.696Z" fill="black" fill-opacity="0.09"/>
<path d="M80.6522 362.005L34.0986 362.005L34.0986 347.787L68.6232 347.787L68.6232 334.35L34.0986 334.35L34.0986 319.975L80.6522 319.975L80.6522 362.005Z" fill="black" fill-opacity="0.09"/>
<path d="M34.0986 403.879L34.0986 390.754C35.1922 390.442 36.2857 390.286 37.223 390.286C34.4111 387.473 33.0051 383.88 33.0051 379.505C33.0051 375.599 33.9424 372.63 35.817 370.599C37.6917 368.411 40.3474 367.317 43.628 367.317C45.3465 367.317 46.7524 367.63 48.0022 368.411C49.252 369.036 50.1893 369.817 50.9704 370.599C51.5953 371.38 52.2201 372.474 52.845 374.349C53.4699 376.067 53.7823 377.317 53.7823 378.098C53.9386 378.88 54.0948 380.286 54.4072 382.473C54.4072 382.63 54.4072 382.63 54.4072 382.63C54.4072 382.63 54.4072 382.786 54.4072 382.942C54.4072 383.098 54.4072 383.098 54.4072 383.255C54.4072 383.411 54.5634 384.036 54.5634 384.817C54.5634 385.598 54.7197 386.223 54.7197 386.692C54.8759 387.161 55.0321 387.629 55.1883 388.254C55.3445 388.879 55.657 389.348 56.1256 389.661C56.5943 389.973 57.063 390.129 57.6878 390.129C59.7187 390.129 60.656 388.723 60.656 385.911C60.656 384.348 60.3436 383.255 59.8749 382.473C59.4063 381.848 58.4689 381.38 57.2192 381.067L57.2192 369.036C64.7177 369.349 68.467 374.974 68.467 385.911C68.467 394.504 66.4361 399.817 62.2182 401.848C60.9685 402.473 58.9376 402.785 56.1256 402.785C54.7197 402.785 52.845 402.785 50.1893 402.785C47.5335 402.785 45.3465 402.785 43.4718 402.785C39.2539 402.473 36.1295 402.942 34.0986 403.879ZM49.5644 390.129C48.9395 389.192 48.3146 387.161 47.5335 384.192C47.0649 381.848 45.8151 380.598 43.9405 380.598C42.8469 380.598 42.0658 380.911 41.441 381.536C40.8161 382.161 40.5036 383.098 40.5036 384.192C40.5036 386.536 41.441 388.254 43.1594 389.348C44.0967 389.817 45.5027 390.129 47.3773 390.129L49.5644 390.129Z" fill="black" fill-opacity="0.09"/>
<path d="M55.1883 421.066L55.1883 420.91L34.0986 421.222L34.0986 409.348L67.8421 409.348L67.8421 425.441L48.1584 431.847L67.8421 438.253L67.8421 454.347L34.0986 454.347L34.0986 442.472L55.1883 442.784L55.1883 442.628L34.0986 435.597L34.0986 427.941L55.1883 421.066Z" fill="black" fill-opacity="0.09"/>
<path d="M45.6589 479.502L34.0986 473.409L34.0986 457.94L46.7524 466.69C47.6898 464.346 49.2519 462.628 51.1266 461.534C53.0012 460.44 55.0321 459.971 56.9067 459.971C60.1873 459.971 62.8431 461.221 64.8739 463.721C66.9048 466.221 67.8421 469.815 67.8421 474.659L67.8421 494.346L34.0986 494.346L34.0986 481.533L45.6589 481.533L45.6589 479.502ZM53.1575 481.377L60.3436 481.377L60.3436 477.784C60.3436 474.659 59.0938 473.252 56.7505 473.252C54.251 473.252 53.1575 474.815 53.1575 477.784L53.1575 481.377Z" fill="black" fill-opacity="0.09"/>
<path d="M58.1565 509.658L58.1565 498.877L67.8421 498.877L67.8421 533.251L58.1565 533.251L58.1565 522.47L34.2548 522.47L34.2548 509.658L58.1565 509.658Z" fill="black" fill-opacity="0.09"/>
<path d="M45.9713 572C42.222 572 39.4101 570.906 37.223 568.563C35.1922 566.219 34.0986 562.781 34.0986 558.25L34.0986 537.782L67.8421 537.782L67.8421 550.594L57.3754 550.594L57.3754 558.563C57.3754 563.094 56.4381 566.375 54.4072 568.719C52.3763 570.906 49.5644 572 45.9713 572ZM45.6589 558.719C48.1584 558.719 49.4082 557.313 49.4082 554.344L49.4082 550.438L41.9096 550.438L41.9096 554.344C42.0658 557.313 43.3156 558.719 45.6589 558.719Z" fill="black" fill-opacity="0.09"/>
<path d="M93.134 24.2833C93.4308 23.1007 94.0079 21.8961 93.9999 20.7173C93.9975 15.9102 90.1247 12.7343 85.2685 13.4924C79.2801 14.4053 73.2738 15.343 67.2674 16.2806C61.3462 17.205 55.4251 18.1293 49.5039 19.0537C49.0779 19.1202 48.7797 19.1667 48.4941 18.7306C46.7309 16.0776 44.2373 15.0464 41.1144 15.4465C40.323 15.5482 39.4321 15.9933 38.8434 15.7136C38.2794 15.4521 38.0603 14.4592 37.6564 13.823C34.8491 9.49737 30.8925 7.47088 25.7903 8.04886C22.551 8.40157 19.3333 9.03499 16.1138 9.51573C15.1767 9.66203 14.3343 9.57501 13.691 8.80133C12.5652 7.4474 13.1691 5.4301 14.894 4.87675C15.4346 4.70495 15.9932 4.50849 16.4221 4.1793C17.2734 3.47824 17.4491 2.35819 16.9923 1.38057C16.5356 0.402952 15.5107 -0.158192 14.3852 0.03937C11.4705 0.516231 8.82531 1.6066 6.5432 3.49253C1.41746 7.72355 -0.657181 13.2046 0.292869 19.765C1.43449 27.563 2.62531 35.3969 3.85212 43.1816C4.93543 50.1801 10.8777 54.6063 17.877 53.601C22.6547 52.8989 27.4257 52.1541 32.1901 51.3667C37.7819 50.4282 41.767 46.1567 42.3471 40.603C42.4136 40.0463 42.6314 39.903 43.1246 39.8479C44.7679 39.6132 46.4425 39.4392 47.8817 38.4497C49.3209 37.4602 50.3665 36.1825 50.8283 34.5152C51.0454 33.8038 51.3664 33.6226 52.0054 33.5229C63.4037 31.7653 74.7955 29.9651 86.1759 28.2323C88.4336 27.8798 90.5617 27.3946 92.218 25.6938C92.5041 25.1465 92.8281 24.7026 93.134 24.2833ZM5.71008 23.6176C5.90508 23.609 5.94768 23.6024 5.97228 23.6204C6.22969 23.7332 6.5117 23.864 6.78711 23.9521C8.83318 24.769 10.9458 25.0292 13.1429 24.7081C14.2325 24.5599 15.0393 23.7128 15.2102 22.7027C15.399 21.668 14.8799 20.569 13.8995 20.1539C13.3175 19.917 12.6341 19.8707 12.0131 19.9458C9.85673 20.1076 8.01409 19.4775 6.44253 18.062C5.25321 17.0021 4.49467 15.7656 5.12683 14.0717C5.45191 13.2124 5.66059 12.3058 6.05947 11.5005C6.58251 10.3699 7.22194 9.28674 8.15182 8.52971C8.58395 9.48932 8.90627 10.4442 9.44637 11.2559C11.2029 13.8662 13.7374 14.738 16.7684 14.3085C19.0508 13.9741 21.3511 13.615 23.499 13.2578C25.2363 24.481 26.9735 35.7042 28.7108 46.9274C24.8343 47.5326 20.8793 48.1937 16.911 48.7695C14.5009 49.1239 12.3583 48.3876 10.6307 46.6687C9.59374 45.6068 8.85318 44.3457 8.68737 42.7108C11.0059 43.8786 13.3891 44.3369 15.8418 43.9759C16.4382 43.8828 17.0933 43.6057 17.5517 43.1845C18.3178 42.4967 18.428 41.518 17.9959 40.5584C17.5392 39.5808 16.7405 39.0717 15.6624 39.1526C14.2794 39.2374 12.9078 39.2549 11.6208 38.6909C9.19429 37.6712 7.70907 35.827 7.17173 33.2012C7.29952 33.1813 7.36012 33.15 7.40932 33.186C7.64213 33.2808 7.85034 33.3575 8.08314 33.4523C10.1424 34.3545 12.2796 34.6328 14.4834 34.3543C15.3599 34.2393 16.0871 33.8636 16.4793 33.0157C17.3245 31.2885 16.0457 29.3684 14.0843 29.5217C12.2934 29.6483 10.566 29.4809 9.01787 28.4988C7.23035 27.3793 6.11417 25.8054 5.71008 23.6176ZM50.0799 23.9024C50.2077 23.8825 50.3961 23.8312 50.5665 23.8046C62.3663 21.9626 74.2086 20.1139 86.0083 18.2718C86.3065 18.2253 86.6047 18.1787 86.8915 18.1995C88.6729 18.2929 89.7633 20.2642 88.8672 21.8027C88.3831 22.6212 87.6247 22.9363 86.7302 23.0759C74.9304 24.918 63.1733 26.7534 51.3735 28.5954C51.1605 28.6287 50.9655 28.6373 50.7951 28.6639C50.5753 27.103 50.3129 25.5487 50.0799 23.9024ZM28.7081 12.9472C31.8257 13.6406 33.9373 15.8677 34.4526 19.1962C35.4416 25.4446 36.388 31.6996 37.377 37.948C37.4365 38.3321 37.4599 38.7655 37.4768 39.1562C37.5635 41.8305 35.9085 44.6675 33.7793 45.568C32.1015 34.7289 30.3991 23.8717 28.7081 12.9472ZM41.9635 35.0249C41.1925 30.1848 40.4527 25.4053 39.7063 20.5832C40.5156 20.4568 41.4036 20.2745 42.2868 20.2022C43.4747 20.126 44.5326 20.9005 44.7422 22.1134C45.2934 25.3926 45.802 28.6785 46.2681 31.971C46.4482 33.2759 45.6498 34.3184 44.3851 34.6032C43.5643 34.7969 42.7303 34.9052 41.9635 35.0249Z" fill="black" fill-opacity="0.09"/>
<path d="M3.85412 68.2108L6.58929 68.2108C6.36827 68.7366 6.25776 69.2555 6.25776 69.7675C6.25776 70.2379 6.37518 70.6046 6.61001 70.8675C6.85867 71.1304 7.16259 71.2618 7.52175 71.2618C7.64608 71.2618 7.77041 71.248 7.89473 71.2203C8.01906 71.1926 8.15719 71.1511 8.30915 71.0958C8.4611 71.0404 8.57851 70.992 8.6614 70.9505C8.75809 70.909 8.89623 70.8398 9.07581 70.7429C9.25539 70.6599 9.37282 70.6046 9.42808 70.5769L18.5453 66.2391L18.5453 69.8297L10.7749 73.1713L18.5453 76.4506L18.5453 79.9167L7.6875 74.9355C6.14034 74.2298 5.05594 73.5241 4.43431 72.8185C3.82649 72.1128 3.5226 71.1788 3.5226 70.0165C3.5226 69.3662 3.6331 68.7643 3.85412 68.2108Z" fill="black" fill-opacity="0.09"/>
<path d="M18.5453 107.147L11.5002 102.394L3.79195 107.583L3.79195 103.702L8.91005 100.464L3.79195 97.1849L3.79195 93.4905L11.5002 98.7L18.5453 93.8848L18.5453 97.6623L13.8002 100.61L18.5453 103.577L18.5453 107.147Z" fill="black" fill-opacity="0.09"/>
<path d="M18.8976 129.293C18.8976 131.452 18.1792 133.195 16.7426 134.523C15.3197 135.865 13.4549 136.537 11.1479 136.537C8.84098 136.537 6.97608 135.865 5.55324 134.523C4.1442 133.195 3.4397 131.445 3.4397 129.272C3.4397 127.086 4.14421 125.322 5.55324 123.98C6.97608 122.637 8.84098 121.966 11.1479 121.966C13.4825 121.966 15.3543 122.631 16.7633 123.959C18.1862 125.301 18.8976 127.079 18.8976 129.293ZM16.2453 129.251C16.2453 128.034 15.7894 127.058 14.8777 126.325C13.966 125.605 12.7434 125.246 11.2101 125.246C9.62148 125.246 8.37821 125.605 7.4803 126.325C6.58239 127.045 6.12654 128.034 6.11272 129.293C6.11272 130.524 6.56857 131.493 7.4803 132.199C8.39202 132.904 9.63529 133.257 11.2101 133.257C12.7573 133.257 13.9798 132.897 14.8777 132.178C15.7894 131.458 16.2453 130.483 16.2453 129.251Z" fill="black" fill-opacity="0.09"/>
<path d="M1.55951e-05 166.846L1.57321e-05 163.712L3.79195 163.712L3.79195 154.33L1.61422e-05 154.33L1.62792e-05 151.196L6.54785 151.196L6.54785 152.317C7.6806 153.161 9.02746 153.763 10.5884 154.123C12.1632 154.496 14.0696 154.683 16.3075 154.683L18.5453 154.683L18.5453 165.206L6.54785 165.206L6.54785 166.846L1.55951e-05 166.846ZM6.54785 161.968L15.9138 161.968L15.9138 157.9L15.6651 157.9C11.9768 157.9 8.93768 157.243 6.54785 155.929L6.54785 161.968Z" fill="black" fill-opacity="0.09"/>
<path d="M18.5453 214.305L3.79194 214.305L3.79194 211.068L14.0281 211.068L14.0281 211.005L3.79195 205.443L3.79195 201.79L18.5453 201.79L18.5453 205.028L8.32986 205.028L8.32986 205.09L18.5453 210.652L18.5453 214.305Z" fill="black" fill-opacity="0.09"/>
<path d="M3.85412 251.032L6.58928 251.032C6.36826 251.558 6.25776 252.077 6.25776 252.589C6.25776 253.059 6.37517 253.426 6.61 253.689C6.85866 253.952 7.16258 254.083 7.52174 254.083C7.64607 254.083 7.7704 254.07 7.89472 254.042C8.01905 254.014 8.15718 253.973 8.30914 253.917C8.46109 253.862 8.5785 253.814 8.66139 253.772C8.75808 253.73 8.89622 253.661 9.0758 253.564C9.25538 253.481 9.37281 253.426 9.42807 253.398L18.5453 249.061L18.5453 252.651L10.7749 255.993L18.5453 259.272L18.5453 262.738L7.6875 257.757C6.14033 257.051 5.05593 256.346 4.4343 255.64C3.82648 254.934 3.52259 254 3.52259 252.838C3.52259 252.188 3.63309 251.586 3.85412 251.032Z" fill="black" fill-opacity="0.09"/>
<path d="M13.2407 281.148L13.2407 285.008C13.2407 286.572 12.8401 287.838 12.0389 288.807C11.2515 289.775 10.0842 290.259 8.53706 290.259C6.96227 290.259 5.77426 289.768 4.97305 288.786C4.18565 287.817 3.79194 286.503 3.79194 284.842L3.79194 277.931L18.5453 277.931L18.5453 288.89L15.8723 288.89L15.8723 281.148L13.2407 281.148ZM8.57851 287.105C9.98754 287.105 10.692 286.261 10.692 284.573L10.6921 281.148L6.44424 281.148L6.44424 284.593C6.44424 286.268 7.15567 287.105 8.57851 287.105Z" fill="black" fill-opacity="0.09"/>
<path d="M18.8976 312.885C18.8976 315.043 18.1792 316.787 16.7426 318.115C15.3197 319.457 13.4549 320.128 11.1479 320.128C8.84097 320.128 6.97607 319.457 5.55323 318.115C4.1442 316.787 3.43969 315.036 3.43969 312.864C3.43969 310.678 4.1442 308.914 5.55323 307.571C6.97607 306.229 8.84097 305.558 11.1479 305.558C13.4825 305.558 15.3543 306.222 16.7633 307.551C18.1861 308.893 18.8976 310.671 18.8976 312.885ZM16.2453 312.843C16.2453 311.626 15.7894 310.65 14.8777 309.917C13.966 309.197 12.7434 308.837 11.2101 308.837C9.62147 308.837 8.37821 309.197 7.48029 309.917C6.58238 310.636 6.12653 311.626 6.11271 312.885C6.11271 314.116 6.56857 315.085 7.48029 315.79C8.39201 316.496 9.63528 316.849 11.2101 316.849C12.7572 316.849 13.9798 316.489 14.8777 315.77C15.7894 315.05 16.2453 314.075 16.2453 312.843Z" fill="black" fill-opacity="0.09"/>
<path d="M18.5453 336.075L18.5453 342.447C18.5453 344.107 18.1447 345.422 17.3435 346.39C16.5561 347.373 15.375 347.864 13.8002 347.864C12.253 347.864 11.0788 347.38 10.2776 346.411C9.49023 345.442 9.09652 344.176 9.09652 342.613L9.09652 339.292L3.79194 339.292L3.79194 336.075L18.5453 336.075ZM15.893 339.292L11.6452 339.292L11.6452 342.177C11.6452 343.865 12.3497 344.709 13.7588 344.709C15.1816 344.709 15.893 343.872 15.893 342.198L15.893 339.292Z" fill="black" fill-opacity="0.09"/>
<path d="M18.5453 376.734L12.7227 370.943L3.79194 377.274L3.79194 373.206L10.4227 368.723L8.55777 366.834L3.79194 366.834L3.79194 363.638L18.5453 363.638L18.5453 366.834L12.4119 366.834L18.5453 372.645L18.5453 376.734Z" fill="black" fill-opacity="0.09"/>
<path d="M18.566 399.62L3.79194 405.245L3.79194 401.841L7.08658 400.679L7.08658 395.179L3.79194 393.975L3.79194 390.654L18.566 396.279L18.566 399.62ZM9.44878 399.89L14.9399 397.939L9.44878 395.968L9.44878 399.89Z" fill="black" fill-opacity="0.09"/>
<path d="M3.79193 439.655L18.5453 439.655L18.5453 444.283L8.41272 447.729L18.5453 451.091L18.5453 455.616L3.79193 455.616L3.79193 452.565L14.2768 452.565L3.79193 448.932L3.79193 446.421L14.1732 442.747L3.79193 442.747L3.79193 439.655Z" fill="black" fill-opacity="0.09"/>
<path d="M18.8976 478.866C18.8976 481.025 18.1792 482.768 16.7426 484.096C15.3197 485.439 13.4548 486.11 11.1479 486.11C8.84097 486.11 6.97606 485.439 5.55322 484.096C4.14419 482.768 3.43968 481.018 3.43968 478.845C3.43968 476.659 4.14419 474.895 5.55322 473.553C6.97606 472.211 8.84097 471.54 11.1479 471.54C13.4825 471.54 15.3543 472.204 16.7633 473.532C18.1861 474.874 18.8976 476.652 18.8976 478.866ZM16.2453 478.825C16.2453 477.607 15.7894 476.632 14.8777 475.898C13.966 475.179 12.7434 474.819 11.2101 474.819C9.62146 474.819 8.3782 475.179 7.48029 475.898C6.58238 476.618 6.12652 477.607 6.1127 478.866C6.1127 480.098 6.56856 481.066 7.48029 481.772C8.39201 482.478 9.63527 482.83 11.2101 482.83C12.7572 482.83 13.9798 482.471 14.8777 481.751C15.7894 481.032 16.2453 480.056 16.2453 478.825Z" fill="black" fill-opacity="0.09"/>
<path d="M18.5453 512.33L15.7894 512.33L15.7894 505.273L3.79193 505.273L3.79193 502.036L18.5453 502.036L18.5453 512.33Z" fill="black" fill-opacity="0.09"/>
<path d="M18.5453 540.167L3.79193 540.167L3.79193 536.93L14.0281 536.93L14.0281 536.867L3.79193 531.305L3.79193 527.652L18.5453 527.652L18.5453 530.89L8.32985 530.89L8.32985 530.952L18.5453 536.515L18.5453 540.167Z" fill="black" fill-opacity="0.09"/>
<path d="M18.5453 568.918L3.79193 568.918L3.79193 565.68L15.7894 565.68L15.7894 561.716L9.53166 561.508C5.51179 561.37 3.50184 560 3.50184 557.399C3.50184 556.679 3.58473 556.07 3.75049 555.572L6.36133 555.572C6.19557 555.904 6.1127 556.285 6.1127 556.714C6.1127 557.226 6.34062 557.62 6.79648 557.897C7.26617 558.173 8.1917 558.333 9.5731 558.374L18.5453 558.623L18.5453 568.918Z" fill="black" fill-opacity="0.09"/>
</svg>
