<svg width="30" height="30" viewBox="0 0 30 30" fill="none" xmlns="http://www.w3.org/2000/svg">
<circle cx="15.0001" cy="15.0001" r="15.0001" fill="url(#paint0_linear_612_1031)"/>
<path d="M19.9356 9H10.8144C9.78462 9 9 9.78462 9 10.8144V19.9356C9 20.9654 9.78462 21.7501 10.8144 21.7501H19.9356C20.9654 21.7501 21.7501 20.9654 21.7501 19.9356V10.8144C21.7501 9.78462 20.9654 9 19.9356 9ZM15.375 19.2C17.4837 19.2 19.2 17.5327 19.2 15.5221C19.2 15.1789 19.151 14.7866 19.0529 14.4923H20.1318V19.6904C20.1318 19.9356 19.9356 20.1808 19.6414 20.1808H11.1087C10.8635 20.1808 10.6183 19.9847 10.6183 19.6904V14.4433H11.7462C11.6481 14.7866 11.5991 15.1298 11.5991 15.4731C11.55 17.5327 13.2664 19.2 15.375 19.2ZM15.375 17.7289C14.0019 17.7289 12.9231 16.65 12.9231 15.326C12.9231 14.0019 14.0019 12.9231 15.375 12.9231C16.7481 12.9231 17.827 14.0019 17.827 15.326C17.827 16.6991 16.7481 17.7289 15.375 17.7289ZM20.0827 12.4817C20.0827 12.776 19.8375 13.0212 19.5433 13.0212H18.1702C17.876 13.0212 17.6308 12.776 17.6308 12.4817V11.1577C17.6308 10.8635 17.876 10.6183 18.1702 10.6183H19.5433C19.8375 10.6183 20.0827 10.8635 20.0827 11.1577V12.4817Z" fill="white"/>
<defs>
<linearGradient id="paint0_linear_612_1031" x1="6.37503" y1="26.6251" x2="26.2501" y2="6.00003" gradientUnits="userSpaceOnUse">
<stop stop-color="#EEA054"/>
<stop offset="0.502762" stop-color="#D64763"/>
<stop offset="1" stop-color="#B62A99"/>
</linearGradient>
</defs>
</svg>
