<svg width="233" height="54" viewBox="0 0 233 54" fill="none" xmlns="http://www.w3.org/2000/svg">
<g opacity="0.04">
<path d="M206.352 23.1413C209.129 22.4523 210.822 19.6398 210.134 16.8594C209.446 14.0789 206.637 12.3834 203.861 13.0724C201.085 13.7613 199.392 16.5738 200.08 19.3543C200.768 22.1348 203.576 23.8303 206.352 23.1413Z" fill="#E8A961"/>
<path d="M128.57 8.80579C130.998 8.80579 132.967 6.83455 132.967 4.40289C132.967 1.97124 130.998 0 128.57 0C126.142 0 124.174 1.97124 124.174 4.40289C124.174 6.83455 126.142 8.80579 128.57 8.80579Z" fill="#E8A961"/>
<path d="M209.15 30.0362C209.15 29.0109 208.307 28.1665 207.283 28.1665C206.259 28.1665 205.416 29.0109 205.416 30.0362C205.416 31.0616 206.259 31.9059 207.283 31.9059C208.367 31.9059 209.15 31.0616 209.15 30.0362Z" fill="#E8A961"/>
<path d="M215.896 34.9818C217.925 34.9818 219.57 33.3346 219.57 31.3027C219.57 29.2707 217.925 27.6235 215.896 27.6235C213.867 27.6235 212.223 29.2707 212.223 31.3027C212.223 33.3346 213.867 34.9818 215.896 34.9818Z" fill="#E8A961"/>
<path d="M213.425 40.5306C213.425 39.5656 212.642 38.8418 211.739 38.8418C210.775 38.8418 210.053 39.6259 210.053 40.5306C210.053 41.4956 210.836 42.2194 211.739 42.2194C212.703 42.2194 213.425 41.4956 213.425 40.5306Z" fill="#E8A961"/>
<path d="M206.207 38.3108C207.298 36.0646 206.365 33.3572 204.123 32.2637C201.88 31.1702 199.176 32.1047 198.084 34.3509C196.993 36.5971 197.926 39.3044 200.169 40.3979C202.411 41.4914 205.115 40.557 206.207 38.3108Z" fill="#E8A961"/>
<path d="M207.043 47.5273C207.043 46.1401 205.899 44.9941 204.514 44.9941C203.129 44.9941 201.984 46.1401 201.984 47.5273C201.984 48.9145 203.129 50.0605 204.514 50.0605C205.899 50.0002 207.043 48.9145 207.043 47.5273Z" fill="#E8A961"/>
<path d="M197.544 45.194C198.563 42.5532 197.252 39.5847 194.615 38.5637C191.978 37.5427 189.014 38.8559 187.994 41.4967C186.975 44.1375 188.286 47.106 190.923 48.127C193.56 49.148 196.524 47.8349 197.544 45.194Z" fill="#E8A961"/>
<path d="M200.419 31.0614C200.419 27.7441 197.769 25.0903 194.456 25.0903C191.144 25.0903 188.494 27.7441 188.494 31.0614C188.494 34.3786 191.144 37.0324 194.456 37.0324C197.769 37.0324 200.419 34.3183 200.419 31.0614Z" fill="#E8A961"/>
<path d="M189.337 17.6116C191.266 17.6116 192.83 16.0454 192.83 14.1134C192.83 12.1814 191.266 10.6152 189.337 10.6152C187.408 10.6152 185.844 12.1814 185.844 14.1134C185.844 16.0454 187.408 17.6116 189.337 17.6116Z" fill="#E8A961"/>
<path d="M197.346 9.28841C197.346 8.26308 196.503 7.479 195.539 7.479C194.515 7.479 193.732 8.32339 193.732 9.28841C193.732 10.2534 194.576 11.0978 195.539 11.0978C196.503 11.0978 197.346 10.2534 197.346 9.28841Z" fill="#E8A961"/>
<path d="M174.612 35.4335C178.651 34.7804 181.396 30.972 180.744 26.9273C180.092 22.8826 176.289 20.1331 172.25 20.7862C168.212 21.4393 165.466 25.2476 166.118 29.2924C166.77 33.3371 170.573 36.0866 174.612 35.4335Z" fill="#E8A961"/>
<path d="M178.135 16.2848C179.1 16.2848 179.882 15.5017 179.882 14.5357C179.882 13.5697 179.1 12.7866 178.135 12.7866C177.171 12.7866 176.389 13.5697 176.389 14.5357C176.389 15.5017 177.171 16.2848 178.135 16.2848Z" fill="#E8A961"/>
<path d="M189.808 33.8375C192.7 30.9404 192.7 26.2432 189.808 23.3461C186.915 20.449 182.224 20.449 179.332 23.3461C176.439 26.2432 176.439 30.9404 179.332 33.8375C182.224 36.7346 186.915 36.7346 189.808 33.8375Z" fill="#E8A961"/>
<path d="M174.762 44.9937C177.124 44.9937 179.038 43.0765 179.038 40.7115C179.038 38.3464 177.124 36.4292 174.762 36.4292C172.401 36.4292 170.486 38.3464 170.486 40.7115C170.486 43.0765 172.401 44.9937 174.762 44.9937Z" fill="#E8A961"/>
<path d="M181.869 50.0605C183.266 50.0605 184.399 48.9263 184.399 47.5273C184.399 46.1283 183.266 44.9941 181.869 44.9941C180.472 44.9941 179.34 46.1283 179.34 47.5273C179.34 48.9263 180.472 50.0605 181.869 50.0605Z" fill="#E8A961"/>
<path d="M163.303 38.0375C165.953 32.8098 163.87 26.4204 158.65 23.7664C153.43 21.1124 147.05 23.1988 144.4 28.4265C141.75 33.6542 143.833 40.0436 149.053 42.6976C154.273 45.3516 160.653 43.2652 163.303 38.0375Z" fill="#E8A961"/>
<path d="M165.308 34.0773C171.461 34.0773 176.449 29.0817 176.449 22.9193C176.449 16.7568 171.461 11.7612 165.308 11.7612C159.154 11.7612 154.166 16.7568 154.166 22.9193C154.166 29.0817 159.154 34.0773 165.308 34.0773Z" fill="#E8A961"/>
<path d="M151.276 10.4341C151.276 9.7103 150.734 9.16748 150.011 9.16748C149.288 9.16748 148.746 9.7103 148.746 10.4341C148.746 11.1578 149.288 11.7007 150.011 11.7007C150.673 11.7007 151.276 11.1578 151.276 10.4341Z" fill="#E8A961"/>
<path d="M170.306 6.45363C170.306 4.94579 169.042 3.6792 167.536 3.6792C166.03 3.6792 164.766 4.94579 164.766 6.45363C164.766 7.96147 166.03 9.22805 167.536 9.22805C169.042 9.22805 170.306 7.96147 170.306 6.45363Z" fill="#E8A961"/>
<path d="M157.659 10.4344C157.659 10.0726 157.358 9.771 156.996 9.771C156.635 9.771 156.334 10.0726 156.334 10.4344C156.334 10.7963 156.635 11.0979 156.996 11.0979C157.358 11.0979 157.659 10.7963 157.659 10.4344Z" fill="#E8A961"/>
<path d="M137.543 41.9785C145.759 41.9785 152.419 35.3087 152.419 27.0811C152.419 18.8534 145.759 12.1836 137.543 12.1836C129.328 12.1836 122.668 18.8534 122.668 27.0811C122.668 35.3087 129.328 41.9785 137.543 41.9785Z" fill="#E8A961"/>
<path d="M144.77 46.3209C144.77 45.175 143.807 44.21 142.663 44.21C141.518 44.21 140.555 45.175 140.555 46.3209C140.555 47.4669 141.518 48.4319 142.663 48.4319C143.807 48.4922 144.77 47.5272 144.77 46.3209Z" fill="#E8A961"/>
<path d="M166.751 43.0036C166.751 42.4608 166.33 42.0386 165.788 42.0386C165.246 42.0386 164.824 42.4608 164.824 43.0036C164.824 43.5464 165.246 43.9686 165.788 43.9686C166.33 43.9686 166.751 43.5464 166.751 43.0036Z" fill="#E8A961"/>
<path d="M162.958 46.6828C162.958 46.2003 162.596 45.8384 162.115 45.8384C161.633 45.8384 161.271 46.2003 161.271 46.6828C161.271 47.1653 161.633 47.5272 162.115 47.5272C162.536 47.5272 162.958 47.105 162.958 46.6828Z" fill="#E8A961"/>
<path d="M127.654 46.6203C130.674 46.1279 132.724 43.2766 132.232 40.2519C131.74 37.2272 128.893 35.1744 125.873 35.6669C122.853 36.1594 120.803 39.0106 121.295 42.0353C121.786 45.06 124.633 47.1128 127.654 46.6203Z" fill="#E8A961"/>
<path d="M129.171 48.8538C129.637 48.8538 130.014 48.4758 130.014 48.0094C130.014 47.5431 129.637 47.165 129.171 47.165C128.706 47.165 128.328 47.5431 128.328 48.0094C128.328 48.4758 128.706 48.8538 129.171 48.8538Z" fill="#E8A961"/>
<path d="M148.686 44.7526C148.686 44.1495 148.204 43.667 147.602 43.667C146.999 43.667 146.518 44.1495 146.518 44.7526C146.518 45.3558 146.999 45.8383 147.602 45.8383C148.204 45.8383 148.686 45.3558 148.686 44.7526Z" fill="#E8A961"/>
<path d="M115.742 45.6576C117.804 45.6576 119.476 43.9834 119.476 41.9182C119.476 39.8529 117.804 38.1787 115.742 38.1787C113.68 38.1787 112.008 39.8529 112.008 41.9182C112.008 43.9834 113.68 45.6576 115.742 45.6576Z" fill="#E8A961"/>
<path d="M116.705 37.2133C121.096 37.2133 124.655 33.6489 124.655 29.2519C124.655 24.855 121.096 21.2905 116.705 21.2905C112.315 21.2905 108.756 24.855 108.756 29.2519C108.756 33.6489 112.315 37.2133 116.705 37.2133Z" fill="#E8A961"/>
<path d="M116.344 22.8589C118.572 22.8589 120.379 21.0497 120.379 18.8179C120.379 16.5861 118.572 14.7769 116.344 14.7769C114.115 14.7769 112.309 16.5861 112.309 18.8179C112.309 21.0497 114.115 22.8589 116.344 22.8589Z" fill="#E8A961"/>
<path d="M123.932 15.6211C123.932 14.8973 123.33 14.3545 122.667 14.3545C121.944 14.3545 121.402 14.9576 121.402 15.6211C121.402 16.3448 122.005 16.8877 122.667 16.8877C123.39 16.948 123.932 16.3448 123.932 15.6211Z" fill="#E8A961"/>
<path d="M127.907 18.275C127.907 16.4656 126.461 15.0181 124.654 15.0181C122.848 15.0181 121.402 16.4656 121.402 18.275C121.402 20.0844 122.848 21.5319 124.654 21.5319C126.461 21.5319 127.907 20.0844 127.907 18.275Z" fill="#E8A961"/>
<path d="M122.486 10.4341C122.486 9.7103 121.944 9.16748 121.222 9.16748C120.499 9.16748 119.957 9.7103 119.957 10.4341C119.957 11.1578 120.499 11.7007 121.222 11.7007C121.944 11.7007 122.486 11.1578 122.486 10.4341Z" fill="#E8A961"/>
<path d="M128.631 12.1832C128.631 11.761 128.27 11.4595 127.908 11.4595C127.547 11.4595 127.186 11.8214 127.186 12.1832C127.186 12.6054 127.547 12.907 127.908 12.907C128.27 12.907 128.631 12.6054 128.631 12.1832Z" fill="#E8A961"/>
<path d="M137.544 7.23778C138.275 7.23778 138.869 6.64371 138.869 5.91088C138.869 5.17806 138.275 4.58398 137.544 4.58398C136.812 4.58398 136.219 5.17806 136.219 5.91088C136.219 6.64371 136.812 7.23778 137.544 7.23778Z" fill="#E8A961"/>
<path d="M147.058 1.86972C147.058 0.844391 146.215 0 145.191 0C144.167 0 143.324 0.844391 143.324 1.86972C143.324 2.89505 144.167 3.73944 145.191 3.73944C146.215 3.73944 147.058 2.89505 147.058 1.86972Z" fill="#E8A961"/>
<path d="M105.574 17.7852C106.335 15.7942 105.34 13.5623 103.352 12.7999C101.364 12.0376 99.1356 13.0335 98.3744 15.0245C97.6132 17.0154 98.6077 19.2474 100.596 20.0098C102.584 20.7721 104.812 19.7761 105.574 17.7852Z" fill="#E8A961"/>
<path d="M110.683 14.7768C110.683 14.1737 110.141 13.6309 109.539 13.6309C108.937 13.6309 108.395 14.1737 108.395 14.7768C108.395 15.38 108.937 15.9228 109.539 15.9228C110.141 15.9228 110.683 15.4403 110.683 14.7768Z" fill="#E8A961"/>
<path d="M109.299 23.2209C109.299 21.9543 108.275 20.8687 106.95 20.8687C105.686 20.8687 104.602 21.894 104.602 23.2209C104.602 24.4875 105.625 25.5731 106.95 25.5731C108.275 25.5731 109.299 24.4875 109.299 23.2209Z" fill="#E8A961"/>
<path d="M108.936 35.9471C108.936 34.2583 107.551 32.8711 105.864 32.8711C104.178 32.8711 102.793 34.2583 102.793 35.9471C102.793 37.6359 104.178 39.0231 105.864 39.0231C107.551 39.0231 108.936 37.6359 108.936 35.9471Z" fill="#E8A961"/>
<path d="M107.191 44.7525C108.023 44.7525 108.697 44.0774 108.697 43.2447C108.697 42.4119 108.023 41.7368 107.191 41.7368C106.36 41.7368 105.686 42.4119 105.686 43.2447C105.686 44.0774 106.36 44.7525 107.191 44.7525Z" fill="#E8A961"/>
<path d="M111.286 48.4922C112.018 48.4922 112.611 47.8981 112.611 47.1653C112.611 46.4325 112.018 45.8384 111.286 45.8384C110.554 45.8384 109.961 46.4325 109.961 47.1653C109.961 47.8981 110.554 48.4922 111.286 48.4922Z" fill="#E8A961"/>
<path d="M100.384 48.0098C102.646 48.0098 104.48 46.1736 104.48 43.9085C104.48 41.6434 102.646 39.8071 100.384 39.8071C98.1226 39.8071 96.2891 41.6434 96.2891 43.9085C96.2891 46.1736 98.1226 48.0098 100.384 48.0098Z" fill="#E8A961"/>
<path d="M93.0987 43.6669C97.4227 43.6669 100.928 40.1565 100.928 35.8261C100.928 31.4958 97.4227 27.9854 93.0987 27.9854C88.7748 27.9854 85.2695 31.4958 85.2695 35.8261C85.2695 40.1565 88.7748 43.6669 93.0987 43.6669Z" fill="#E8A961"/>
<path d="M94.7234 31.0014C99.0806 31.0014 102.613 27.464 102.613 23.1003C102.613 18.7367 99.0806 15.1992 94.7234 15.1992C90.3662 15.1992 86.834 18.7367 86.834 23.1003C86.834 27.464 90.3662 31.0014 94.7234 31.0014Z" fill="#E8A961"/>
<path d="M86.8954 13.6308C86.8954 12.3642 85.8716 11.3389 84.6069 11.3389C83.3422 11.3389 82.3184 12.3642 82.3184 13.6308C82.3184 14.8974 83.3422 15.9227 84.6069 15.9227C85.8716 15.9227 86.8954 14.8974 86.8954 13.6308Z" fill="#E8A961"/>
<path d="M97.6147 12.907C97.6147 12.1832 97.0125 11.5801 96.2898 11.5801C95.5671 11.5801 94.9648 12.1832 94.9648 12.907C94.9648 13.6307 95.5671 14.2339 96.2898 14.2339C97.0125 14.2942 97.6147 13.6911 97.6147 12.907Z" fill="#E8A961"/>
<path d="M102.612 9.228C103.311 9.228 103.877 8.66093 103.877 7.96141C103.877 7.26189 103.311 6.69482 102.612 6.69482C101.914 6.69482 101.348 7.26189 101.348 7.96141C101.348 8.66093 101.914 9.228 102.612 9.228Z" fill="#E8A961"/>
<path d="M79.6072 32.2676C84.0642 32.2676 87.6773 28.6491 87.6773 24.1855C87.6773 19.722 84.0642 16.1035 79.6072 16.1035C75.1502 16.1035 71.5371 19.722 71.5371 24.1855C71.5371 28.6491 75.1502 32.2676 79.6072 32.2676Z" fill="#E8A961"/>
<path d="M70.7156 38.7906C75.444 37.6817 78.3795 32.9441 77.2723 28.2087C76.1651 23.4733 71.4345 20.5333 66.7061 21.6422C61.9777 22.751 59.0421 27.4887 60.1493 32.2241C61.2565 36.9595 65.9872 39.8994 70.7156 38.7906Z" fill="#E8A961"/>
<path d="M79.668 45.2352C83.0939 45.2352 85.8711 42.4538 85.8711 39.0228C85.8711 35.5919 83.0939 32.8105 79.668 32.8105C76.2421 32.8105 73.4648 35.5919 73.4648 39.0228C73.4648 42.4538 76.2421 45.2352 79.668 45.2352Z" fill="#E8A961"/>
<path d="M88.8816 45.8385C88.8816 45.356 88.5203 44.9941 88.0385 44.9941C87.5567 44.9941 87.1953 45.356 87.1953 45.8385C87.1953 46.321 87.5567 46.6829 88.0385 46.6829C88.5203 46.6829 88.8816 46.2607 88.8816 45.8385Z" fill="#E8A961"/>
<path d="M70.1519 48.854C72.4137 48.854 74.2472 47.0178 74.2472 44.7527C74.2472 42.4876 72.4137 40.6514 70.1519 40.6514C67.8902 40.6514 66.0566 42.4876 66.0566 44.7527C66.0566 47.0178 67.8902 48.854 70.1519 48.854Z" fill="#E8A961"/>
<path d="M60.5165 42.9431C63.0444 42.9431 65.0936 40.8908 65.0936 38.3592C65.0936 35.8276 63.0444 33.7754 60.5165 33.7754C57.9887 33.7754 55.9395 35.8276 55.9395 38.3592C55.9395 40.8908 57.9887 42.9431 60.5165 42.9431Z" fill="#E8A961"/>
<path d="M63.3465 45.2954C63.3465 44.5113 62.7443 43.9082 61.9613 43.9082C61.1784 43.9082 60.5762 44.5113 60.5762 45.2954C60.5762 46.0795 61.1784 46.6826 61.9613 46.6826C62.7443 46.6826 63.3465 46.0192 63.3465 45.2954Z" fill="#E8A961"/>
<path d="M61.178 32.2679C63.9719 32.2679 66.2369 29.9997 66.2369 27.2016C66.2369 24.4035 63.9719 22.1353 61.178 22.1353C58.3841 22.1353 56.1191 24.4035 56.1191 27.2016C56.1191 29.9997 58.3841 32.2679 61.178 32.2679Z" fill="#E8A961"/>
<path d="M64.7919 15.6214C64.7919 14.5358 63.9487 13.6914 62.8647 13.6914C61.7806 13.6914 60.9375 14.5358 60.9375 15.6214C60.9375 16.7071 61.7806 17.5515 62.8647 17.5515C63.9487 17.6118 64.7919 16.7071 64.7919 15.6214Z" fill="#E8A961"/>
<path d="M53.2894 21.2305C53.2894 19.6623 52.0246 18.3354 50.3986 18.3354C48.8328 18.3354 47.5078 19.602 47.5078 21.2305C47.5078 22.7987 48.7725 24.1256 50.3986 24.1256C52.0246 24.1256 53.2894 22.7987 53.2894 21.2305Z" fill="#E8A961"/>
<path d="M72.26 9.65023C72.26 8.68521 71.477 7.84082 70.4532 7.84082C69.4896 7.84082 68.6465 8.6249 68.6465 9.65023C68.6465 10.6756 69.4294 11.4596 70.4532 11.4596C71.477 11.4596 72.26 10.6756 72.26 9.65023Z" fill="#E8A961"/>
<path d="M75.4516 15.38C76.4162 15.38 77.1981 14.5969 77.1981 13.6309C77.1981 12.6649 76.4162 11.8818 75.4516 11.8818C74.487 11.8818 73.7051 12.6649 73.7051 13.6309C73.7051 14.5969 74.487 15.38 75.4516 15.38Z" fill="#E8A961"/>
<path d="M80.3907 7.90101C80.3907 7.47881 80.0896 7.17725 79.668 7.17725C79.2464 7.17725 78.9453 7.47881 78.9453 7.90101C78.9453 8.32321 79.2464 8.62477 79.668 8.62477C80.0896 8.62477 80.3907 8.26289 80.3907 7.90101Z" fill="#E8A961"/>
<path d="M53.2287 31.8455C53.2287 31.0614 52.5662 30.3979 51.7833 30.3979C51.0004 30.3979 50.3379 31.0614 50.3379 31.8455C50.3379 32.6296 51.0004 33.293 51.7833 33.293C52.5662 33.2327 53.2287 32.6296 53.2287 31.8455Z" fill="#E8A961"/>
</g>
<path d="M45.1599 26.7853C42.51 26.7853 40.643 26.2425 39.4988 25.0965C38.3545 24.0108 37.8125 22.2014 37.8125 19.7286V15.3257H43.2929V19.0048C43.2929 20.2111 43.4736 21.0555 43.7747 21.6586C44.1361 22.2014 44.7383 22.503 45.7019 22.503C46.0633 22.503 46.4848 22.4427 47.0268 22.3824C47.5086 22.2618 47.87 22.2014 47.9904 22.1411V15.3257H53.4709V33.2991H47.9904V26.3631C47.8098 26.4234 47.3882 26.544 46.6655 26.6043C45.9428 26.725 45.461 26.7853 45.1599 26.7853Z" fill="#E8A961"/>
<path d="M64.8523 20.2715H69.7907V33.2992H65.033V26.3632H64.9728L61.1786 33.2992H56.2402V20.2715H60.998V27.0266H61.0582L64.8523 20.2715Z" fill="#E8A961"/>
<path d="M85.8708 28.052C85.6299 29.8011 84.9072 31.1883 83.7028 32.1533C82.4983 33.1184 80.9324 33.6009 79.0655 33.6009C76.9576 33.6009 75.2713 32.9977 73.9464 31.7311C72.6215 30.4646 71.959 28.8964 71.959 26.8457C71.959 24.7951 72.6215 23.1063 73.9464 21.8397C75.2713 20.5731 76.9576 19.9097 79.1257 19.9097C80.9927 19.9097 82.5585 20.3922 83.763 21.3572C84.9675 22.3222 85.6299 23.5888 85.8106 25.157H81.0529C80.9927 24.6141 80.7518 24.2523 80.4506 23.8904C80.0893 23.5888 79.6677 23.4079 79.1859 23.4079C77.7405 23.4079 77.0178 24.5538 77.0178 26.7854C77.0178 28.8361 77.7405 29.8614 79.1859 29.8614C80.3302 29.8614 80.9927 29.198 81.1733 27.9314H85.8708V28.052Z" fill="#E8A961"/>
<path d="M91.05 24.0109H86.8945V20.2715H100.144V24.0109H95.9884V33.2389H91.05V24.0109Z" fill="#E8A961"/>
<path d="M115.202 33.2993H110.143C110.023 32.8771 109.962 32.4549 109.962 32.093C108.878 33.1786 107.493 33.7215 105.807 33.7215C104.301 33.7215 103.157 33.3596 102.374 32.6358C101.531 31.9121 101.109 30.8867 101.109 29.6201C101.109 28.9567 101.23 28.4139 101.531 27.9314C101.772 27.4488 102.073 27.087 102.374 26.7854C102.675 26.5441 103.097 26.3029 103.819 26.0616C104.482 25.8204 104.964 25.6998 105.265 25.6998C105.566 25.6394 106.108 25.5791 106.951 25.4585C107.011 25.4585 107.011 25.4585 107.011 25.4585C107.011 25.4585 107.072 25.4585 107.132 25.4585C107.192 25.4585 107.192 25.4585 107.252 25.4585C107.312 25.4585 107.553 25.3982 107.855 25.3982C108.156 25.3982 108.397 25.3379 108.577 25.3379C108.758 25.2776 108.939 25.2172 109.179 25.1569C109.42 25.0966 109.601 24.976 109.721 24.7951C109.842 24.6141 109.902 24.4332 109.902 24.1919C109.902 23.4078 109.36 23.046 108.276 23.046C107.674 23.046 107.252 23.1666 106.951 23.3475C106.71 23.5285 106.53 23.8903 106.409 24.3729H101.772C101.892 21.4778 104.06 20.0303 108.276 20.0303C111.588 20.0303 113.636 20.8144 114.419 22.4428C114.66 22.9253 114.78 23.7094 114.78 24.7951C114.78 25.3379 114.78 26.0616 114.78 27.087C114.78 28.1123 114.78 28.9567 114.78 29.6805C114.66 31.3089 114.841 32.5152 115.202 33.2993ZM109.842 27.3282C109.481 27.5695 108.698 27.8107 107.553 28.1123C106.65 28.2932 106.168 28.7758 106.168 29.4995C106.168 29.9217 106.289 30.2233 106.53 30.4645C106.77 30.7058 107.132 30.8264 107.553 30.8264C108.457 30.8264 109.119 30.4645 109.541 29.8011C109.721 29.4392 109.842 28.8964 109.842 28.1726V27.3282Z" fill="#E8A961"/>
<path d="M124.174 28.836L121.826 33.2992H115.863L119.236 28.4138C118.332 28.0519 117.67 27.4488 117.248 26.725C116.827 26.0013 116.646 25.2172 116.646 24.4934C116.646 23.2269 117.128 22.2015 118.092 21.4174C119.055 20.6334 120.44 20.2715 122.307 20.2715H129.896V33.2992H124.957V28.836H124.174ZM124.957 25.941V23.1665H123.572C122.368 23.1665 121.826 23.649 121.826 24.5538C121.826 25.5188 122.428 25.941 123.572 25.941H124.957Z" fill="#E8A961"/>
<path d="M152.058 15.3257V33.2991H146.577V19.9698H141.398V33.2991H135.857V15.3257H152.058Z" fill="#E8A961"/>
<path d="M168.198 33.2993H163.139C163.019 32.8771 162.958 32.4549 162.958 32.093C161.874 33.1786 160.489 33.7215 158.803 33.7215C157.297 33.7215 156.153 33.3596 155.37 32.6358C154.527 31.9121 154.105 30.8867 154.105 29.6201C154.105 28.9567 154.226 28.4139 154.527 27.9314C154.768 27.4488 155.069 27.087 155.37 26.7854C155.671 26.5441 156.093 26.3029 156.816 26.0616C157.478 25.8204 157.96 25.6998 158.261 25.6998C158.562 25.6394 159.104 25.5791 159.947 25.4585C160.007 25.4585 160.007 25.4585 160.007 25.4585C160.007 25.4585 160.068 25.4585 160.128 25.4585C160.188 25.4585 160.188 25.4585 160.248 25.4585C160.309 25.4585 160.549 25.3982 160.851 25.3982C161.152 25.3982 161.393 25.3379 161.573 25.3379C161.754 25.2776 161.935 25.2172 162.176 25.1569C162.416 25.0966 162.597 24.976 162.718 24.7951C162.838 24.6141 162.898 24.4332 162.898 24.1919C162.898 23.4078 162.356 23.046 161.272 23.046C160.67 23.046 160.248 23.1666 159.947 23.3475C159.706 23.5285 159.526 23.8903 159.405 24.3729H154.768C154.888 21.4778 157.056 20.0303 161.272 20.0303C164.585 20.0303 166.632 20.8144 167.415 22.4428C167.656 22.9253 167.776 23.7094 167.776 24.7951C167.776 25.3379 167.776 26.0616 167.776 27.087C167.776 28.1123 167.776 28.9567 167.776 29.6805C167.656 31.3089 167.837 32.5152 168.198 33.2993ZM162.898 27.3282C162.537 27.5695 161.754 27.8107 160.61 28.1123C159.706 28.2932 159.225 28.7758 159.225 29.4995C159.225 29.9217 159.345 30.2233 159.586 30.4645C159.827 30.7058 160.188 30.8264 160.61 30.8264C161.513 30.8264 162.176 30.4645 162.597 29.8011C162.778 29.4392 162.898 28.8964 162.898 28.1726V27.3282Z" fill="#E8A961"/>
<path d="M174.823 25.1569H174.763L174.884 33.2992H170.307V20.2715H176.51L178.979 27.871L181.448 20.2715H187.651V33.2992H183.074L183.195 25.1569H183.134L180.424 33.2992H177.473L174.823 25.1569Z" fill="#E8A961"/>
<path d="M197.346 28.836L194.997 33.2992H189.035L192.408 28.4138C191.504 28.0519 190.842 27.4488 190.42 26.725C189.999 26.0013 189.818 25.2172 189.818 24.4934C189.818 23.2269 190.3 22.2015 191.263 21.4174C192.227 20.6334 193.612 20.2715 195.479 20.2715H203.067V33.2992H198.129V28.836H197.346ZM198.069 25.941V23.1665H196.684C195.479 23.1665 194.937 23.649 194.937 24.5538C194.937 25.5188 195.539 25.941 196.684 25.941H198.069Z" fill="#E8A961"/>
<path d="M208.97 24.0109H204.814V20.2715H218.064V24.0109H213.908V33.2389H208.97V24.0109Z" fill="#E8A961"/>
<path d="M233 28.7154C233 30.1629 232.578 31.2486 231.675 32.093C230.771 32.877 229.446 33.2992 227.7 33.2992H219.811V20.2715H224.749V24.3125H227.82C229.567 24.3125 230.832 24.6744 231.735 25.4585C232.578 26.2425 233 27.3282 233 28.7154ZM227.881 28.836C227.881 27.871 227.339 27.3885 226.194 27.3885H224.689V30.2835H226.194C227.339 30.2232 227.881 29.7407 227.881 28.836Z" fill="#E8A961"/>
<path d="M21.6394 10.4902C21.1811 10.3796 20.7131 10.1608 20.2578 10.168C18.4007 10.1858 17.1918 11.6939 17.5073 13.5682C17.8878 15.8797 18.2779 18.198 18.668 20.5163C19.0526 22.8017 19.4372 25.0872 19.8218 27.3726C19.8494 27.537 19.8688 27.6521 19.7016 27.7641C18.685 28.4549 18.2982 29.4223 18.4673 30.628C18.5102 30.9335 18.6863 31.2763 18.581 31.5048C18.4826 31.7238 18.1 31.8119 17.8561 31.9703C16.1982 33.0706 15.4337 34.607 15.6807 36.5771C15.832 37.8279 16.0916 39.0694 16.2923 40.3121C16.3532 40.6738 16.3235 40.9997 16.0276 41.2511C15.5098 41.691 14.7277 41.4646 14.5059 40.7999C14.437 40.5915 14.3585 40.3763 14.2294 40.2117C13.9546 39.8851 13.5211 39.8211 13.1456 40.0011C12.77 40.181 12.558 40.5791 12.6396 41.0135C12.8373 42.1384 13.2708 43.157 14.01 44.0325C15.6682 45.9989 17.7952 46.7816 20.3251 46.3913C23.3322 45.9227 26.353 45.4349 29.3546 44.9334C32.0531 44.4902 33.7354 42.1778 33.3145 39.4759C33.0211 37.6317 32.7112 35.7902 32.3849 33.9514C31.9964 31.7934 30.3277 30.268 28.1796 30.0633C27.9643 30.0395 27.9079 29.9559 27.8843 29.7654C27.786 29.1311 27.711 28.4844 27.3221 27.9316C26.9332 27.3788 26.4347 26.9791 25.7885 26.8064C25.5127 26.725 25.4412 26.6016 25.3997 26.355C24.6678 21.9554 23.9194 17.5585 23.1972 13.1658C23.0505 12.2944 22.8532 11.4736 22.1885 10.8393C21.9757 10.7306 21.8027 10.607 21.6394 10.4902ZM21.7883 44.2839C21.784 44.2086 21.7813 44.1921 21.7881 44.1826C21.8305 44.0827 21.8797 43.9732 21.9125 43.8665C22.2185 43.0727 22.3093 42.2553 22.175 41.4071C22.1127 40.9865 21.7817 40.6776 21.3907 40.6151C20.9901 40.5458 20.568 40.7503 20.4122 41.1307C20.3234 41.3565 20.3087 41.6208 20.3405 41.8606C20.4131 42.6935 20.1782 43.4079 19.6387 44.0203C19.2348 44.4837 18.7606 44.7813 18.1033 44.5429C17.7699 44.4202 17.4187 44.3427 17.1057 44.1914C16.6665 43.9932 16.2451 43.7498 15.9484 43.3931C16.3171 43.2227 16.6845 43.0947 16.9955 42.8831C17.9957 42.195 18.3207 41.2123 18.1407 40.0423C18.0009 39.1613 17.8515 38.2734 17.7036 37.4444C22.0311 36.7336 26.3586 36.0227 30.6861 35.3119C30.9379 36.8081 31.2117 38.3345 31.4525 39.8663C31.6006 40.7966 31.3262 41.6274 30.6702 42.3012C30.2648 42.7057 29.781 42.9963 29.1502 43.0662C29.5906 42.1659 29.7566 41.2431 29.6057 40.2964C29.567 40.0662 29.4569 39.8139 29.292 39.6382C29.0228 39.3445 28.6442 39.3053 28.2755 39.4757C27.9 39.6557 27.707 39.9662 27.7433 40.3826C27.7825 40.9169 27.7956 41.447 27.5837 41.9464C27.201 42.8879 26.4955 43.4684 25.4837 43.6853C25.4754 43.636 25.463 43.6127 25.4767 43.5936C25.5122 43.5032 25.5409 43.4225 25.5764 43.3322C25.9154 42.5331 26.013 41.706 25.8952 40.8552C25.8467 40.5168 25.6981 40.237 25.3688 40.0884C24.6976 39.7678 23.9618 40.2688 24.0301 41.0264C24.0874 41.7182 24.0307 42.3864 23.6585 42.9883C23.2344 43.6831 22.6315 44.1201 21.7883 44.2839ZM21.6922 27.1329C21.6839 27.0836 21.6632 27.011 21.6521 26.9452C20.8857 22.3908 20.1166 17.8199 19.3502 13.2655C19.3308 13.1504 19.3114 13.0353 19.3181 12.9244C19.3459 12.2355 20.1024 11.8071 20.7009 12.1481C21.0193 12.3324 21.1446 12.6244 21.2027 12.9697C21.9691 17.5241 22.7327 22.0621 23.4991 26.6165C23.5129 26.6987 23.5172 26.774 23.5282 26.8398C22.9263 26.9302 22.3271 27.0371 21.6922 27.1329ZM17.5594 35.4321C17.8128 34.2246 18.6633 33.4006 19.9467 33.1898C22.3559 32.7856 24.7679 32.3978 27.1771 31.9936C27.3252 31.9693 27.4925 31.9587 27.6433 31.9508C28.676 31.9079 29.7797 32.5377 30.1374 33.3575C25.958 34.0441 21.7717 34.7402 17.5594 35.4321ZM26.0266 30.2311C24.1604 30.5461 22.3175 30.8488 20.4581 31.1542C20.4056 30.8419 20.331 30.4993 20.299 30.1582C20.264 29.6993 20.5583 29.2876 21.0259 29.2024C22.2901 28.9778 23.5571 28.7697 24.8268 28.578C25.3301 28.5038 25.7365 28.8088 25.8524 29.2966C25.931 29.6132 25.9768 29.9351 26.0266 30.2311Z" fill="#E8A961"/>
<path d="M39.104 46.064C39.24 46.064 39.376 46.056 39.496 46.032C39.616 46.008 39.728 45.952 39.848 45.872C39.96 45.792 40.072 45.68 40.184 45.528C40.296 45.384 40.408 45.192 40.528 44.944L42.776 40.288H42.2L40.392 44.08L38.536 40.288H37.952L40.072 44.656L40 44.808C39.872 45.08 39.744 45.28 39.608 45.408C39.472 45.536 39.296 45.6 39.096 45.6C38.968 45.6 38.856 45.592 38.76 45.568C38.664 45.552 38.584 45.528 38.512 45.504V45.984C38.568 46.008 38.656 46.024 38.76 46.04C38.864 46.056 38.976 46.064 39.104 46.064ZM48.6471 40.288H48.0071L49.9431 43.056L47.8951 46H48.5031L50.2631 43.48L51.9991 46H52.6551L50.5911 43.072L52.5431 40.288H51.9351L50.2631 42.68L48.6471 40.288ZM60.8249 46.112C61.2729 46.112 61.6649 46.032 62.0009 45.864C62.3369 45.704 62.6169 45.488 62.8409 45.216C63.0649 44.944 63.2329 44.632 63.3449 44.272C63.4569 43.912 63.5129 43.536 63.5129 43.144C63.5129 42.752 63.4569 42.376 63.3449 42.016C63.2329 41.656 63.0649 41.344 62.8409 41.064C62.6169 40.792 62.3369 40.576 62.0009 40.408C61.6649 40.248 61.2729 40.168 60.8249 40.168C60.3769 40.168 59.9849 40.248 59.6489 40.408C59.3049 40.576 59.0249 40.792 58.8009 41.064C58.5769 41.344 58.4089 41.656 58.2969 42.016C58.1849 42.376 58.1289 42.752 58.1289 43.144C58.1289 43.536 58.1849 43.912 58.2969 44.272C58.4089 44.632 58.5769 44.944 58.8009 45.216C59.0249 45.488 59.3049 45.704 59.6489 45.864C59.9849 46.032 60.3769 46.112 60.8249 46.112ZM60.8249 45.656C60.4489 45.656 60.1209 45.584 59.8489 45.44C59.5769 45.296 59.3529 45.104 59.1849 44.864C59.0089 44.632 58.8809 44.36 58.8009 44.064C58.7129 43.768 58.6729 43.456 58.6729 43.144C58.6729 42.832 58.7129 42.528 58.8009 42.224C58.8809 41.928 59.0089 41.656 59.1849 41.416C59.3529 41.184 59.5769 40.992 59.8489 40.848C60.1209 40.704 60.4489 40.632 60.8249 40.632C61.2009 40.632 61.5209 40.704 61.7929 40.848C62.0649 40.992 62.2889 41.184 62.4649 41.416C62.6329 41.656 62.7609 41.928 62.8489 42.224C62.9289 42.528 62.9689 42.832 62.9689 43.144C62.9689 43.456 62.9289 43.768 62.8489 44.064C62.7609 44.36 62.6329 44.632 62.4649 44.864C62.2889 45.104 62.0649 45.296 61.7929 45.44C61.5209 45.584 61.2009 45.656 60.8249 45.656ZM69.6666 45.536H69.0666V47.52H69.6106V46H74.1866V47.52H74.7306V45.536H74.0506V40.288H70.5146V41.04C70.5146 41.368 70.5066 41.712 70.4986 42.08C70.4826 42.448 70.4506 42.824 70.3946 43.216C70.3386 43.608 70.2506 43.992 70.1386 44.384C70.0266 44.776 69.8666 45.16 69.6666 45.536ZM71.0586 40.752H73.5066V45.536H70.2426C70.4426 45.16 70.6026 44.768 70.7146 44.36C70.8186 43.952 70.8986 43.552 70.9546 43.152C71.0106 42.752 71.0426 42.36 71.0506 41.984C71.0586 41.608 71.0586 41.264 71.0586 40.944V40.752ZM88.6997 45.416V40.288H88.1557V46H88.8597L92.1397 40.872V46H92.6837V40.288H91.9797L88.6997 45.416ZM107.15 46.064C107.286 46.064 107.422 46.056 107.542 46.032C107.662 46.008 107.774 45.952 107.894 45.872C108.006 45.792 108.118 45.68 108.23 45.528C108.342 45.384 108.454 45.192 108.574 44.944L110.822 40.288H110.246L108.438 44.08L106.582 40.288H105.998L108.118 44.656L108.046 44.808C107.918 45.08 107.79 45.28 107.654 45.408C107.518 45.536 107.342 45.6 107.142 45.6C107.014 45.6 106.902 45.592 106.806 45.568C106.71 45.552 106.63 45.528 106.558 45.504V45.984C106.614 46.008 106.702 46.024 106.806 46.04C106.91 46.056 107.022 46.064 107.15 46.064ZM120.549 40.752V40.288H116.605V46H119.301C119.837 46 120.253 45.856 120.549 45.56C120.845 45.264 120.997 44.864 120.997 44.352C120.997 43.84 120.845 43.44 120.549 43.144C120.253 42.848 119.837 42.704 119.301 42.704H117.149V40.752H120.549ZM119.181 45.536H117.149V43.168H119.181C119.581 43.168 119.893 43.272 120.117 43.48C120.341 43.696 120.453 43.984 120.453 44.352C120.453 44.72 120.341 45.008 120.117 45.216C119.893 45.432 119.581 45.536 119.181 45.536ZM129.613 46.112C130.061 46.112 130.453 46.032 130.789 45.864C131.125 45.704 131.405 45.488 131.629 45.216C131.853 44.944 132.021 44.632 132.133 44.272C132.245 43.912 132.301 43.536 132.301 43.144C132.301 42.752 132.245 42.376 132.133 42.016C132.021 41.656 131.853 41.344 131.629 41.064C131.405 40.792 131.125 40.576 130.789 40.408C130.453 40.248 130.061 40.168 129.613 40.168C129.165 40.168 128.773 40.248 128.437 40.408C128.093 40.576 127.813 40.792 127.589 41.064C127.365 41.344 127.197 41.656 127.085 42.016C126.973 42.376 126.917 42.752 126.917 43.144C126.917 43.536 126.973 43.912 127.085 44.272C127.197 44.632 127.365 44.944 127.589 45.216C127.813 45.488 128.093 45.704 128.437 45.864C128.773 46.032 129.165 46.112 129.613 46.112ZM129.613 45.656C129.237 45.656 128.909 45.584 128.637 45.44C128.365 45.296 128.141 45.104 127.973 44.864C127.797 44.632 127.669 44.36 127.589 44.064C127.501 43.768 127.461 43.456 127.461 43.144C127.461 42.832 127.501 42.528 127.589 42.224C127.669 41.928 127.797 41.656 127.973 41.416C128.141 41.184 128.365 40.992 128.637 40.848C128.909 40.704 129.237 40.632 129.613 40.632C129.989 40.632 130.309 40.704 130.581 40.848C130.853 40.992 131.077 41.184 131.253 41.416C131.421 41.656 131.549 41.928 131.637 42.224C131.717 42.528 131.757 42.832 131.757 43.144C131.757 43.456 131.717 43.768 131.637 44.064C131.549 44.36 131.421 44.632 131.253 44.864C131.077 45.104 130.853 45.296 130.581 45.44C130.309 45.584 129.989 45.656 129.613 45.656ZM140.967 40.288H138.431V46H138.975V43.552H140.967C141.223 43.552 141.455 43.512 141.663 43.44C141.871 43.368 142.047 43.264 142.199 43.12C142.351 42.984 142.463 42.808 142.543 42.608C142.623 42.408 142.663 42.176 142.663 41.92C142.663 41.664 142.623 41.432 142.543 41.232C142.463 41.032 142.351 40.856 142.199 40.712C142.047 40.576 141.871 40.464 141.663 40.392C141.455 40.32 141.223 40.288 140.967 40.288ZM140.847 43.088H138.975V40.752H140.847C141.223 40.752 141.535 40.848 141.767 41.04C141.999 41.232 142.119 41.528 142.119 41.92C142.119 42.312 141.999 42.608 141.767 42.8C141.535 42.992 141.223 43.088 140.847 43.088ZM149.294 43.36V40.288H148.75V46H149.294V44.04L150.39 43.024L152.766 46H153.47L150.798 42.648L153.35 40.288H152.614L149.294 43.36ZM163.737 46L161.497 40.288H160.889L158.593 46H159.169L159.857 44.224H162.457L163.153 46H163.737ZM160.025 43.76L161.169 40.832L162.273 43.76H160.025ZM179.803 45.296L177.827 40.288H177.027V46H177.571V41.064H177.587L179.547 46H180.059L182.011 41.064H182.027V46H182.571V40.288H181.771L179.803 45.296ZM191.379 46.112C191.827 46.112 192.219 46.032 192.555 45.864C192.891 45.704 193.171 45.488 193.395 45.216C193.619 44.944 193.787 44.632 193.899 44.272C194.011 43.912 194.067 43.536 194.067 43.144C194.067 42.752 194.011 42.376 193.899 42.016C193.787 41.656 193.619 41.344 193.395 41.064C193.171 40.792 192.891 40.576 192.555 40.408C192.219 40.248 191.827 40.168 191.379 40.168C190.931 40.168 190.539 40.248 190.203 40.408C189.859 40.576 189.579 40.792 189.355 41.064C189.131 41.344 188.963 41.656 188.851 42.016C188.739 42.376 188.683 42.752 188.683 43.144C188.683 43.536 188.739 43.912 188.851 44.272C188.963 44.632 189.131 44.944 189.355 45.216C189.579 45.488 189.859 45.704 190.203 45.864C190.539 46.032 190.931 46.112 191.379 46.112ZM191.379 45.656C191.003 45.656 190.675 45.584 190.403 45.44C190.131 45.296 189.907 45.104 189.739 44.864C189.563 44.632 189.435 44.36 189.355 44.064C189.267 43.768 189.227 43.456 189.227 43.144C189.227 42.832 189.267 42.528 189.355 42.224C189.435 41.928 189.563 41.656 189.739 41.416C189.907 41.184 190.131 40.992 190.403 40.848C190.675 40.704 191.003 40.632 191.379 40.632C191.755 40.632 192.075 40.704 192.347 40.848C192.619 40.992 192.843 41.184 193.019 41.416C193.187 41.656 193.315 41.928 193.403 42.224C193.483 42.528 193.523 42.832 193.523 43.144C193.523 43.456 193.483 43.768 193.403 44.064C193.315 44.36 193.187 44.632 193.019 44.864C192.843 45.104 192.619 45.296 192.347 45.44C192.075 45.584 191.755 45.656 191.379 45.656ZM203.773 40.752V40.288H200.245V46H200.789V40.752H203.773ZM210.13 45.416V40.288H209.586V46H210.29L213.57 40.872V46H214.114V40.288H213.41L210.13 45.416ZM220.402 46.048C220.498 46.048 220.61 46.04 220.73 46.024C220.85 46.008 220.97 45.952 221.09 45.864C221.21 45.776 221.322 45.624 221.442 45.424C221.554 45.224 221.658 44.944 221.746 44.568C221.834 44.2 221.906 43.728 221.962 43.16C222.018 42.592 222.042 41.896 222.042 41.064V40.752H224.482V46H225.026V40.288H221.514V41.096C221.514 41.84 221.49 42.472 221.45 42.984C221.41 43.496 221.354 43.92 221.29 44.248C221.218 44.584 221.146 44.84 221.058 45.016C220.97 45.2 220.882 45.328 220.794 45.408C220.706 45.496 220.618 45.544 220.538 45.552C220.458 45.568 220.386 45.576 220.33 45.576C220.29 45.576 220.226 45.568 220.138 45.56C220.05 45.552 219.978 45.544 219.938 45.52V45.984C219.954 45.992 219.978 45.992 220.018 46.008C220.058 46.016 220.098 46.016 220.146 46.024C220.194 46.032 220.242 46.032 220.29 46.04C220.33 46.048 220.37 46.048 220.402 46.048Z" fill="#E8A961"/>
</svg>
