<svg width="230" height="38" viewBox="0 0 230 38" fill="none" xmlns="http://www.w3.org/2000/svg">
<path d="M34.0454 17.395C31.281 17.395 29.3334 16.8266 28.1397 15.6267C26.946 14.4899 26.3806 12.5953 26.3806 10.0061V5.39593H32.0978V9.24824C32.0978 10.5113 32.2862 11.3954 32.6004 12.027C32.9773 12.5953 33.6056 12.9111 34.6108 12.9111C34.9878 12.9111 35.4276 12.848 35.993 12.7848C36.4956 12.6585 36.8726 12.5953 36.9982 12.5322V5.39593H42.7154V24.2154H36.9982V16.9529C36.8097 17.016 36.3699 17.1423 35.616 17.2055C34.8621 17.3318 34.3595 17.395 34.0454 17.395Z" fill="#E8A961"/>
<path d="M54.5896 10.5745H59.7413V24.2155H54.7781V16.9529H54.7152L50.7572 24.2155H45.6054V10.5745H50.5687V17.6476H50.6315L54.5896 10.5745Z" fill="#E8A961"/>
<path d="M76.5159 18.7212C76.2646 20.5526 75.5107 22.0051 74.2542 23.0155C72.9977 24.026 71.3642 24.5312 69.4166 24.5312C67.2177 24.5312 65.4585 23.8997 64.0763 22.5735C62.6942 21.2473 62.0031 19.6053 62.0031 17.4581C62.0031 15.3109 62.6942 13.5426 64.0763 12.2164C65.4585 10.8902 67.2177 10.1955 69.4794 10.1955C71.427 10.1955 73.0605 10.7008 74.317 11.7112C75.5736 12.7216 76.2646 14.0479 76.4531 15.6898H71.4898C71.427 15.1215 71.1757 14.7425 70.8616 14.3636C70.4846 14.0479 70.0448 13.8584 69.5422 13.8584C68.0344 13.8584 67.2805 15.0583 67.2805 17.395C67.2805 19.5421 68.0344 20.6157 69.5422 20.6157C70.7359 20.6157 71.427 19.9211 71.6155 18.5949H76.5159V18.7212Z" fill="#E8A961"/>
<path d="M81.919 14.4899H77.584V10.5745H91.4058V14.4899H87.0708V24.1523H81.919V14.4899Z" fill="#E8A961"/>
<path d="M107.112 24.2155H101.835C101.709 23.7734 101.646 23.3313 101.646 22.9524C100.516 24.0891 99.0706 24.6575 97.3114 24.6575C95.7408 24.6575 94.5471 24.2786 93.7303 23.5208C92.8508 22.7629 92.411 21.6893 92.411 20.3631C92.411 19.6685 92.5366 19.1001 92.8508 18.5949C93.1021 18.0896 93.4162 17.7107 93.7303 17.395C94.0445 17.1423 94.4843 16.8897 95.2382 16.6371C95.9293 16.3845 96.4319 16.2582 96.746 16.2582C97.0601 16.195 97.6256 16.1319 98.5051 16.0056C98.568 16.0056 98.568 16.0056 98.568 16.0056C98.568 16.0056 98.6308 16.0056 98.6936 16.0056C98.7564 16.0056 98.7564 16.0056 98.8193 16.0056C98.8821 16.0056 99.1334 15.9424 99.4475 15.9424C99.7617 15.9424 100.013 15.8793 100.201 15.8793C100.39 15.8161 100.578 15.753 100.83 15.6898C101.081 15.6267 101.27 15.5004 101.395 15.3109C101.521 15.1215 101.584 14.932 101.584 14.6794C101.584 13.8584 101.018 13.4795 99.8873 13.4795C99.2591 13.4795 98.8193 13.6058 98.5051 13.7952C98.2538 13.9847 98.0654 14.3636 97.9397 14.8688H93.1021C93.2277 11.8375 95.4895 10.3218 99.8873 10.3218C103.343 10.3218 105.479 11.1428 106.296 12.848C106.547 13.3532 106.673 14.1742 106.673 15.3109C106.673 15.8793 106.673 16.6371 106.673 17.7107C106.673 18.7843 106.673 19.6685 106.673 20.4263C106.547 22.1314 106.735 23.3945 107.112 24.2155ZM101.521 17.9633C101.144 18.2159 100.327 18.4685 99.1334 18.7843C98.191 18.9738 97.6884 19.479 97.6884 20.2368C97.6884 20.6789 97.8141 20.9947 98.0654 21.2473C98.3167 21.4999 98.6936 21.6262 99.1334 21.6262C100.076 21.6262 100.767 21.2473 101.207 20.5526C101.395 20.1737 101.521 19.6053 101.521 18.8475V17.9633Z" fill="#E8A961"/>
<path d="M116.473 19.5421L114.023 24.2155H107.803L111.322 19.1001C110.379 18.7212 109.688 18.0896 109.248 17.3318C108.809 16.574 108.62 15.753 108.62 14.9951C108.62 13.6689 109.123 12.5953 110.128 11.7744C111.133 10.9534 112.578 10.5745 114.526 10.5745H122.442V24.2155H117.29V19.5421H116.473ZM117.29 16.5108V13.6058H115.845C114.589 13.6058 114.023 14.111 114.023 15.0583C114.023 16.0687 114.652 16.5108 115.845 16.5108H117.29Z" fill="#E8A961"/>
<path d="M145.561 5.39593V24.2154H139.844V10.2587H134.441V24.2154H128.661V5.39593H145.561Z" fill="#E8A961"/>
<path d="M162.399 24.2155H157.122C156.996 23.7734 156.933 23.3313 156.933 22.9524C155.802 24.0891 154.357 24.6575 152.598 24.6575C151.027 24.6575 149.834 24.2786 149.017 23.5208C148.137 22.7629 147.698 21.6893 147.698 20.3631C147.698 19.6685 147.823 19.1001 148.137 18.5949C148.389 18.0896 148.703 17.7107 149.017 17.395C149.331 17.1423 149.771 16.8897 150.525 16.6371C151.216 16.3845 151.718 16.2582 152.033 16.2582C152.347 16.195 152.912 16.1319 153.792 16.0056C153.855 16.0056 153.855 16.0056 153.855 16.0056C153.855 16.0056 153.917 16.0056 153.98 16.0056C154.043 16.0056 154.043 16.0056 154.106 16.0056C154.169 16.0056 154.42 15.9424 154.734 15.9424C155.048 15.9424 155.3 15.8793 155.488 15.8793C155.677 15.8161 155.865 15.753 156.116 15.6898C156.368 15.6267 156.556 15.5004 156.682 15.3109C156.807 15.1215 156.87 14.932 156.87 14.6794C156.87 13.8584 156.305 13.4795 155.174 13.4795C154.546 13.4795 154.106 13.6058 153.792 13.7952C153.54 13.9847 153.352 14.3636 153.226 14.8688H148.389C148.514 11.8375 150.776 10.3218 155.174 10.3218C158.629 10.3218 160.765 11.1428 161.582 12.848C161.833 13.3532 161.959 14.1742 161.959 15.3109C161.959 15.8793 161.959 16.6371 161.959 17.7107C161.959 18.7843 161.959 19.6685 161.959 20.4263C161.833 22.1314 162.022 23.3945 162.399 24.2155ZM156.87 17.9633C156.493 18.2159 155.677 18.4685 154.483 18.7843C153.54 18.9738 153.038 19.479 153.038 20.2368C153.038 20.6789 153.163 20.9947 153.415 21.2473C153.666 21.4999 154.043 21.6262 154.483 21.6262C155.425 21.6262 156.116 21.2473 156.556 20.5526C156.745 20.1737 156.87 19.6053 156.87 18.8475V17.9633Z" fill="#E8A961"/>
<path d="M169.31 15.6898H169.247L169.373 24.2155H164.598V10.5745H171.069L173.645 18.5317L176.221 10.5745H182.692V24.2155H177.917L178.043 15.6898H177.98L175.153 24.2155H172.074L169.31 15.6898Z" fill="#E8A961"/>
<path d="M192.807 19.5421L190.357 24.2155H184.137L187.655 19.1001C186.713 18.7212 186.022 18.0896 185.582 17.3318C185.142 16.574 184.954 15.753 184.954 14.9951C184.954 13.6689 185.456 12.5953 186.461 11.7744C187.467 10.9534 188.912 10.5745 190.859 10.5745H198.775V24.2155H193.624V19.5421H192.807ZM193.561 16.5108V13.6058H192.116C190.859 13.6058 190.294 14.111 190.294 15.0583C190.294 16.0687 190.922 16.5108 192.116 16.5108H193.561Z" fill="#E8A961"/>
<path d="M204.932 14.4899H200.597V10.5745H214.419V14.4899H210.084V24.1523H204.932V14.4899Z" fill="#E8A961"/>
<path d="M230 19.4158C230 20.9315 229.56 22.0683 228.618 22.9524C227.675 23.7734 226.293 24.2155 224.471 24.2155H216.241V10.5745H221.393V14.8057H224.597C226.419 14.8057 227.738 15.1846 228.681 16.0056C229.56 16.8266 230 17.9633 230 19.4158ZM224.66 19.5421C224.66 18.5317 224.094 18.0265 222.901 18.0265H221.33V21.0578H222.901C224.094 20.9947 224.66 20.4894 224.66 19.5421Z" fill="#E8A961"/>
<path d="M9.76428 0.350082C9.28874 0.230084 8.80439 -0.00318357 8.3304 3.29222e-05C6.39744 0.00101896 5.12042 1.5666 5.42525 3.52975C5.79236 5.95058 6.16938 8.37869 6.54641 10.8068C6.91809 13.2005 7.28976 15.5941 7.66144 17.9878C7.68818 18.16 7.7069 18.2805 7.53152 18.396C6.46476 19.1088 6.05014 20.1169 6.21102 21.3793C6.25191 21.6992 6.43085 22.0594 6.31843 22.2973C6.21324 22.5253 5.81401 22.6139 5.55819 22.7772C3.81887 23.9121 3.00403 25.5116 3.23643 27.5742C3.37826 28.8837 3.63295 30.1844 3.82626 31.4859C3.88508 31.8648 3.85009 32.2053 3.539 32.4654C2.99459 32.9205 2.18343 32.6763 1.96093 31.979C1.89185 31.7605 1.81286 31.5347 1.68049 31.3613C1.39859 31.0171 0.948226 30.9461 0.555127 31.1308C0.162027 31.3154 -0.0636071 31.7297 0.015832 32.1847C0.207577 33.363 0.646013 34.4323 1.40434 35.3549C3.10563 37.427 5.30955 38.2657 7.94747 37.8816C11.083 37.4201 14.233 36.9387 17.3632 36.4428C20.1773 36.0048 21.9571 33.6026 21.5529 30.7731C21.2705 28.8417 20.9711 26.913 20.6544 24.987C20.2771 22.7265 18.5595 21.1155 16.3264 20.881C16.1025 20.8541 16.0449 20.766 16.0228 20.5667C15.9284 19.9023 15.8584 19.2254 15.4605 18.6436C15.0627 18.0618 14.5489 17.6391 13.8785 17.4524C13.5925 17.3646 13.5196 17.2349 13.4795 16.9766C12.7728 12.3687 12.0489 7.76353 11.3521 3.16295C11.2104 2.25026 11.0153 1.38996 10.3314 0.720379C10.1114 0.604712 9.93286 0.47376 9.76428 0.350082ZM9.4966 35.6917C9.49315 35.6128 9.49047 35.5956 9.49771 35.5857C9.54306 35.4816 9.59566 35.3676 9.63109 35.2563C9.95957 34.4291 10.0642 33.5751 9.93508 32.6869C9.87547 32.2465 9.53486 31.9203 9.12873 31.8512C8.71268 31.7749 8.27077 31.9847 8.10386 32.3811C8.00859 32.6164 7.98998 32.8926 8.02017 33.1437C8.08523 34.0154 7.83185 34.7603 7.2627 35.3956C6.8365 35.8764 6.33933 36.183 5.65821 35.9275C5.31269 35.796 4.94812 35.7117 4.62433 35.5504C4.16973 35.339 3.73418 35.0805 3.42978 34.7046C3.81564 34.5299 4.1996 34.3996 4.52596 34.1813C5.57556 33.4712 5.92611 32.4466 5.75342 31.2213C5.61894 30.2986 5.47455 29.3687 5.33093 28.5004C9.84376 27.7981 14.3566 27.0958 18.8694 26.3935C19.1128 27.9606 19.3786 29.5594 19.6101 31.1636C19.7526 32.1379 19.4565 33.0041 18.7654 33.7025C18.3384 34.1217 17.8313 34.4211 17.1739 34.4881C17.6435 33.5508 17.8278 32.5874 17.6826 31.5959C17.6452 31.3548 17.5338 31.0899 17.3644 30.9046C17.0878 30.595 16.6943 30.5504 16.3084 30.7251C15.9153 30.9097 15.7107 31.2326 15.7432 31.6684C15.7773 32.2275 15.7843 32.7819 15.5575 33.3022C15.1475 34.2832 14.406 34.8836 13.3501 35.1008C13.3421 35.0491 13.3295 35.0246 13.344 35.0047C13.3821 34.9106 13.413 34.8265 13.4511 34.7324C13.8139 33.8999 13.9258 33.0359 13.8138 32.145C13.7676 31.7907 13.6165 31.4967 13.2755 31.3381C12.581 30.9965 11.809 31.5135 11.8706 32.3063C11.9215 33.0303 11.8542 33.7287 11.4593 34.3545C11.0092 35.0771 10.3763 35.5283 9.4966 35.6917ZM9.61111 17.7549C9.60309 17.7033 9.58248 17.6271 9.57178 17.5582C8.8311 12.7881 8.08774 8.00078 7.34706 3.23067C7.32834 3.11013 7.30962 2.98958 7.31798 2.87364C7.35554 2.15351 8.1482 1.7127 8.76681 2.07498C9.09595 2.27067 9.22264 2.57724 9.27879 2.93887C10.0195 7.70898 10.7575 12.4619 11.4982 17.232C11.5115 17.3181 11.515 17.3969 11.5257 17.4658C10.898 17.5547 10.2731 17.6607 9.61111 17.7549ZM5.20605 26.3946C5.48484 25.1343 6.38035 24.2807 7.71876 24.0724C10.2312 23.6726 12.7464 23.29 15.2588 22.8901C15.4133 22.8661 15.5875 22.8566 15.7446 22.8498C16.82 22.8147 17.9607 23.4838 18.3228 24.3445C13.9644 25.0228 9.59877 25.711 5.20605 26.3946ZM14.0835 21.036C12.1372 21.3477 10.2154 21.6468 8.27645 21.9485C8.22565 21.6213 8.15233 21.2624 8.12326 20.9054C8.09262 20.4251 8.40405 19.9975 8.89175 19.9127C10.2103 19.6899 11.5316 19.4843 12.8555 19.2959C13.3802 19.2231 13.7993 19.5458 13.9139 20.0571C13.9918 20.3889 14.0353 20.726 14.0835 21.036Z" fill="#E8A961"/>
<path d="M27.4274 36.442V35.3363C27.6388 35.4256 27.8475 35.4703 28.0533 35.4703C28.2425 35.4703 28.39 35.4228 28.4957 35.3279C28.6014 35.2274 28.6542 35.1045 28.6542 34.9593C28.6542 34.909 28.6487 34.8588 28.6375 34.8085C28.6264 34.7583 28.6097 34.7024 28.5875 34.641C28.5652 34.5796 28.5457 34.5321 28.529 34.4986C28.5124 34.4595 28.4845 34.4037 28.4456 34.3311C28.4122 34.2585 28.39 34.211 28.3788 34.1887L26.6346 30.503H28.0784L29.422 33.6442L30.7406 30.503H32.1343L30.1314 34.8923C29.8477 35.5177 29.5639 35.9561 29.2802 36.2074C28.9964 36.4531 28.6208 36.576 28.1535 36.576C27.892 36.576 27.65 36.5313 27.4274 36.442Z" fill="#E8A961"/>
<path d="M43.0837 30.503L41.1726 33.351L43.259 36.4671H41.6984L40.3965 34.3981L39.0778 36.4671H37.5923L39.6871 33.351L37.7509 30.503H39.2698L40.4549 32.4212L41.6483 30.503H43.0837Z" fill="#E8A961"/>
<path d="M51.9884 30.3606C52.8564 30.3606 53.5574 30.6509 54.0915 31.2317C54.6312 31.8069 54.9011 32.5608 54.9011 33.4934C54.9011 34.426 54.6312 35.1799 54.0915 35.7551C53.5574 36.3247 52.8536 36.6095 51.9801 36.6095C51.101 36.6095 50.3916 36.3247 49.852 35.7551C49.3123 35.1799 49.0424 34.426 49.0424 33.4934C49.0424 32.5496 49.3095 31.793 49.8436 31.2233C50.3833 30.6482 51.0982 30.3606 51.9884 30.3606ZM51.9717 31.4328C51.4821 31.4328 51.0899 31.617 50.795 31.9856C50.5057 32.3542 50.361 32.8484 50.361 33.4683C50.361 34.1105 50.5057 34.6131 50.795 34.9761C51.0843 35.339 51.4821 35.5233 51.9884 35.5289C52.4836 35.5289 52.8731 35.3446 53.1568 34.9761C53.4406 34.6075 53.5825 34.1049 53.5825 33.4683C53.5825 32.8428 53.4378 32.3486 53.1485 31.9856C52.8592 31.617 52.4669 31.4328 51.9717 31.4328Z" fill="#E8A961"/>
<path d="M67.0883 38H65.8281V36.4671H62.0559V38H60.7957V35.353H61.2464C61.5858 34.8951 61.8278 34.3506 61.9725 33.7196C62.1227 33.083 62.1978 32.3123 62.1978 31.4076V30.503H66.429V35.353H67.0883V38ZM65.1271 35.353V31.5668H63.4914V31.6673C63.4914 33.1583 63.2271 34.3869 62.6985 35.353H65.1271Z" fill="#E8A961"/>
<path d="M86.1718 30.503V36.4671H84.8698V32.3291H84.8448L82.6082 36.4671H81.1393V30.503H82.4413V34.6326H82.4663L84.7029 30.503H86.1718Z" fill="#E8A961"/>
<path d="M100.94 36.442V35.3363C101.151 35.4256 101.36 35.4703 101.565 35.4703C101.755 35.4703 101.902 35.4228 102.008 35.3279C102.114 35.2274 102.166 35.1045 102.166 34.9593C102.166 34.909 102.161 34.8588 102.15 34.8085C102.139 34.7583 102.122 34.7024 102.1 34.641C102.077 34.5796 102.058 34.5321 102.041 34.4986C102.024 34.4595 101.997 34.4037 101.958 34.3311C101.924 34.2585 101.902 34.211 101.891 34.1887L100.147 30.503H101.591L102.934 33.6442L104.253 30.503H105.646L103.644 34.8923C103.36 35.5177 103.076 35.9561 102.792 36.2074C102.509 36.4531 102.133 36.576 101.666 36.576C101.404 36.576 101.162 36.5313 100.94 36.442Z" fill="#E8A961"/>
<path d="M113.049 32.6474H114.601C115.23 32.6474 115.739 32.8093 116.129 33.1332C116.518 33.4515 116.713 33.9234 116.713 34.5489C116.713 35.1855 116.515 35.6657 116.12 35.9896C115.731 36.3079 115.202 36.4671 114.535 36.4671H111.755V30.503H116.162V31.5835H113.049V32.6474ZM115.444 34.5321C115.444 33.9625 115.105 33.6777 114.426 33.6777H113.049V35.3949H114.434C115.108 35.3949 115.444 35.1073 115.444 34.5321Z" fill="#E8A961"/>
<path d="M125.81 30.3606C126.678 30.3606 127.379 30.6509 127.913 31.2317C128.453 31.8069 128.723 32.5608 128.723 33.4934C128.723 34.426 128.453 35.1799 127.913 35.7551C127.379 36.3247 126.675 36.6095 125.802 36.6095C124.923 36.6095 124.213 36.3247 123.674 35.7551C123.134 35.1799 122.864 34.426 122.864 33.4934C122.864 32.5496 123.131 31.793 123.665 31.2233C124.205 30.6482 124.92 30.3606 125.81 30.3606ZM125.794 31.4328C125.304 31.4328 124.912 31.617 124.617 31.9856C124.328 32.3542 124.183 32.8484 124.183 33.4683C124.183 34.1105 124.328 34.6131 124.617 34.9761C124.906 35.339 125.304 35.5233 125.81 35.5289C126.305 35.5289 126.695 35.3446 126.979 34.9761C127.262 34.6075 127.404 34.1049 127.404 33.4683C127.404 32.8428 127.26 32.3486 126.97 31.9856C126.681 31.617 126.289 31.4328 125.794 31.4328Z" fill="#E8A961"/>
<path d="M135.135 30.503H137.697C138.365 30.503 138.893 30.6649 139.283 30.9888C139.678 31.3071 139.875 31.7846 139.875 32.4212C139.875 33.0466 139.681 33.5213 139.291 33.8452C138.902 34.1635 138.393 34.3227 137.764 34.3227H136.429V36.4671H135.135V30.503ZM136.429 31.5752V33.2924H137.589C138.267 33.2924 138.607 33.0076 138.607 32.438C138.607 31.8628 138.27 31.5752 137.597 31.5752H136.429Z" fill="#E8A961"/>
<path d="M151.484 30.503L149.156 32.8568L151.701 36.4671H150.065L148.263 33.7866L147.503 34.5405V36.4671H146.218V30.503H147.503V32.9824L149.84 30.503H151.484Z" fill="#E8A961"/>
<path d="M160.687 30.4946L162.948 36.4671H161.58L161.112 35.1352H158.901L158.417 36.4671H157.081L159.343 30.4946H160.687ZM160.795 34.1803L160.011 31.9605L159.218 34.1803H160.795Z" fill="#E8A961"/>
<path d="M176.784 36.4671V30.503H178.645L180.031 34.5991L181.383 30.503H183.202V36.4671H181.975V32.2285L180.515 36.4671H179.505L178.028 32.2704V36.4671H176.784Z" fill="#E8A961"/>
<path d="M192.551 30.3606C193.419 30.3606 194.12 30.6509 194.654 31.2317C195.194 31.8069 195.464 32.5608 195.464 33.4934C195.464 34.426 195.194 35.1799 194.654 35.7551C194.12 36.3247 193.416 36.6095 192.543 36.6095C191.664 36.6095 190.954 36.3247 190.415 35.7551C189.875 35.1799 189.605 34.426 189.605 33.4934C189.605 32.5496 189.872 31.793 190.406 31.2233C190.946 30.6482 191.661 30.3606 192.551 30.3606ZM192.534 31.4328C192.045 31.4328 191.653 31.617 191.358 31.9856C191.068 32.3542 190.924 32.8484 190.924 33.4683C190.924 34.1105 191.068 34.6131 191.358 34.9761C191.647 35.339 192.045 35.5233 192.551 35.5289C193.046 35.5289 193.436 35.3446 193.719 34.9761C194.003 34.6075 194.145 34.1049 194.145 33.4683C194.145 32.8428 194 32.3486 193.711 31.9856C193.422 31.617 193.03 31.4328 192.534 31.4328Z" fill="#E8A961"/>
<path d="M206.007 30.503V31.617H203.169V36.4671H201.867V30.503H206.007Z" fill="#E8A961"/>
<path d="M217.2 30.503V36.4671H215.898V32.3291H215.873L213.637 36.4671H212.168V30.503H213.47V34.6326H213.495L215.731 30.503H217.2Z" fill="#E8A961"/>
<path d="M228.761 30.503V36.4671H227.459V31.617H225.865L225.781 34.1468C225.726 35.7718 225.175 36.5844 224.129 36.5844C223.839 36.5844 223.595 36.5509 223.394 36.4838V35.4284C223.528 35.4954 223.681 35.5289 223.853 35.5289C224.059 35.5289 224.218 35.4368 224.329 35.2525C224.44 35.0626 224.504 34.6885 224.521 34.13L224.621 30.503H228.761Z" fill="#E8A961"/>
</svg>
