<svg width="26" height="15" viewBox="0 0 26 15" fill="none" xmlns="http://www.w3.org/2000/svg">
<path d="M25.3084 7.62882C25.3084 11.6734 22.0198 14.9998 17.9374 14.9998C13.8928 14.9998 10.5664 11.6734 10.5664 7.62882C10.5664 3.58422 13.855 0.257812 17.8996 0.257812C22.0198 0.257812 25.3084 3.58422 25.3084 7.62882Z" fill="#F9B50B"/>
<path d="M15.4425 7.66662C15.4425 7.13742 15.3669 6.60822 15.2913 6.11682H10.7553C10.7931 5.85222 10.8687 5.62542 10.9443 5.32302H14.9889C14.9133 5.05842 14.7999 4.79382 14.6865 4.52922H11.2467C11.3601 4.26462 11.5113 4.03782 11.6625 3.73542H14.2707C14.1195 3.47082 13.9305 3.20622 13.7037 2.94162H12.2673C12.4941 2.67702 12.7209 2.45022 13.0233 2.18561C11.7381 0.976013 9.99929 0.257812 8.07149 0.257812C4.06469 0.371213 0.738281 3.58422 0.738281 7.62882C0.738281 11.6734 4.02689 14.9998 8.10929 14.9998C10.0371 14.9998 11.7381 14.2438 13.0611 13.072C13.3257 12.8452 13.5525 12.5806 13.8171 12.2782H12.3051C12.1161 12.0514 11.9271 11.7868 11.7759 11.5222H14.3463C14.4975 11.2954 14.6487 11.0308 14.7621 10.7284H11.3223C11.2089 10.5016 11.0955 10.237 11.0199 9.93462H15.0645C15.2913 9.25422 15.4425 8.49822 15.4425 7.66662Z" fill="#C8191C"/>
<path d="M10.718 9.51842L10.8314 8.83802C10.7936 8.83802 10.718 8.87582 10.6424 8.87582C10.3778 8.87582 10.34 8.72462 10.3778 8.64902L10.6046 7.28822H11.0204L11.1338 6.53221H10.7558L10.8314 6.07861H10.0376C10.0376 6.07861 9.58398 8.64902 9.58398 8.95142C9.58398 9.40502 9.84859 9.63182 10.2266 9.63182C10.4534 9.63182 10.6424 9.55622 10.718 9.51842Z" fill="white"/>
<path d="M10.9824 8.27116C10.9824 9.36736 11.7384 9.63196 12.3432 9.63196C12.9102 9.63196 13.1748 9.51856 13.1748 9.51856L13.326 8.76256C13.326 8.76256 12.9102 8.95156 12.4944 8.95156C11.625 8.95156 11.7762 8.30896 11.7762 8.30896H13.3638C13.3638 8.30896 13.4772 7.81756 13.4772 7.59076C13.4772 7.09936 13.2126 6.45675 12.3432 6.45675C11.5872 6.41895 10.9824 7.28836 10.9824 8.27116ZM12.3432 7.13716C12.759 7.13716 12.6834 7.62856 12.6834 7.66636H11.814C11.8518 7.62856 11.9274 7.13716 12.3432 7.13716Z" fill="white"/>
<path d="M17.2933 9.51849L17.4445 8.64909C17.4445 8.64909 17.0665 8.83809 16.7641 8.83809C16.2349 8.83809 15.9703 8.42229 15.9703 7.93089C15.9703 6.98589 16.4239 6.49448 16.9909 6.49448C17.3689 6.49448 17.7091 6.72129 17.7091 6.72129L17.8225 5.88968C17.8225 5.88968 17.3689 5.70068 16.9153 5.70068C16.0081 5.70068 15.1387 6.49448 15.1387 7.96869C15.1387 8.95149 15.5923 9.59409 16.5373 9.59409C16.8775 9.63189 17.2933 9.51849 17.2933 9.51849Z" fill="white"/>
<path d="M6.44491 6.41895C5.9157 6.41895 5.4999 6.57015 5.4999 6.57015L5.3865 7.25055C5.3865 7.25055 5.7267 7.09935 6.2559 7.09935C6.52051 7.09935 6.74731 7.13715 6.74731 7.36395C6.74731 7.51515 6.70951 7.55295 6.70951 7.55295H6.3693C5.6889 7.55295 4.9707 7.81755 4.9707 8.72475C4.9707 9.44295 5.4243 9.59415 5.7267 9.59415C6.2559 9.59415 6.5205 9.25395 6.55831 9.25395L6.52051 9.55635H7.16311L7.46551 7.40175C7.46551 6.45675 6.70951 6.41895 6.44491 6.41895ZM6.59611 8.15775C6.59611 8.27115 6.52051 8.91375 6.0669 8.91375C5.8401 8.91375 5.7645 8.72475 5.7645 8.61135C5.7645 8.42235 5.8779 8.15775 6.4827 8.15775C6.55831 8.15775 6.59611 8.15775 6.59611 8.15775Z" fill="white"/>
<path d="M8.22234 9.59435C8.41135 9.59435 9.39415 9.63215 9.39415 8.57375C9.39415 7.59095 8.44915 7.77995 8.44915 7.40195C8.44915 7.21295 8.60035 7.13735 8.86495 7.13735C8.97835 7.13735 9.39415 7.17515 9.39415 7.17515L9.50755 6.45695C9.50755 6.45695 9.24295 6.38135 8.75155 6.38135C8.18455 6.38135 7.57974 6.60815 7.57974 7.40195C7.57974 8.30915 8.56255 8.23355 8.56255 8.57375C8.56255 8.80055 8.29795 8.83835 8.10895 8.83835C7.76874 8.83835 7.39074 8.72495 7.39074 8.72495L7.27734 9.44315C7.35294 9.51875 7.57974 9.59435 8.22234 9.59435Z" fill="white"/>
<path d="M23.7947 5.81396L23.6435 6.87237C23.6435 6.87237 23.3411 6.49437 22.8875 6.49437C22.1693 6.49437 21.5645 7.36377 21.5645 8.38437C21.5645 9.02697 21.8669 9.66957 22.5473 9.66957C23.0009 9.66957 23.3033 9.36717 23.3033 9.36717L23.2655 9.63177H24.0593L24.6263 5.88956L23.7947 5.81396ZM23.4167 7.85517C23.4167 8.27097 23.2277 8.83797 22.7741 8.83797C22.5095 8.83797 22.3583 8.61117 22.3583 8.19537C22.3583 7.55277 22.6229 7.17477 23.0009 7.17477C23.2655 7.21257 23.4167 7.40157 23.4167 7.85517Z" fill="white"/>
<path d="M2.17397 9.55617L2.62757 6.75897L2.70317 9.55617H3.23237L4.25297 6.75897L3.83717 9.55617H4.66877L5.31137 5.81396H4.02617L3.23237 8.11977L3.19457 5.81396H2.06057L1.41797 9.55617H2.17397Z" fill="white"/>
<path d="M14.2698 9.55643C14.4966 8.27123 14.5344 7.21283 15.1014 7.40183C15.177 6.91043 15.2904 6.68363 15.366 6.49463H15.2148C14.8746 6.49463 14.5722 6.94823 14.5722 6.94823L14.6478 6.53243H13.8918L13.4004 9.55643H14.2698Z" fill="white"/>
<path d="M19.109 6.41895C18.5798 6.41895 18.164 6.57015 18.164 6.57015L18.0506 7.25055C18.0506 7.25055 18.3908 7.09935 18.92 7.09935C19.1846 7.09935 19.4114 7.13715 19.4114 7.36395C19.4114 7.51515 19.3736 7.55295 19.3736 7.55295H19.0334C18.353 7.55295 17.6348 7.81755 17.6348 8.72475C17.6348 9.44295 18.0884 9.59415 18.3908 9.59415C18.92 9.59415 19.1846 9.25395 19.2224 9.25395L19.1846 9.55635H19.9028L20.2052 7.40175C20.2052 6.45675 19.3736 6.41895 19.109 6.41895ZM19.298 8.15775C19.298 8.27115 19.2224 8.91375 18.7688 8.91375C18.542 8.91375 18.4664 8.72475 18.4664 8.61135C18.4664 8.42235 18.5798 8.15775 19.1846 8.15775C19.2602 8.15775 19.2602 8.15775 19.298 8.15775Z" fill="white"/>
<path d="M20.8089 9.55643C21.0357 8.27123 21.0735 7.21283 21.6405 7.40183C21.7161 6.91043 21.8295 6.68363 21.9051 6.49463H21.7539C21.4137 6.49463 21.1113 6.94823 21.1113 6.94823L21.1869 6.53243H20.4309L19.9395 9.55643H20.8089Z" fill="white"/>
</svg>
