<svg width="30" height="30" viewBox="0 0 30 30" fill="none" xmlns="http://www.w3.org/2000/svg">
<circle cx="14.8032" cy="14.9272" r="14.8032" fill="#48C95F"/>
<path d="M20.6711 9.05239C19.2088 7.59519 17.2591 6.78564 15.2011 6.78564C10.9226 6.78564 7.4565 10.2397 7.4565 14.5034C7.4565 15.8526 7.83561 17.2019 8.48551 18.3352L7.40234 22.329L11.5184 21.2496C12.6557 21.8433 13.9013 22.1671 15.2011 22.1671C19.4796 22.1671 22.9457 18.713 22.9457 14.4494C22.8916 12.4525 22.1333 10.5096 20.6711 9.05239ZM18.938 17.2558C18.7755 17.6876 18.0173 18.1194 17.6382 18.1733C17.3133 18.2273 16.88 18.2273 16.4467 18.1194C16.176 18.0114 15.7968 17.9035 15.3636 17.6876C13.4139 16.878 12.1683 14.9351 12.0599 14.7732C11.9516 14.6653 11.2476 13.7478 11.2476 12.7763C11.2476 11.8049 11.735 11.3731 11.8975 11.1572C12.0599 10.9413 12.2766 10.9413 12.439 10.9413C12.5474 10.9413 12.7098 10.9413 12.8182 10.9413C12.9265 10.9413 13.0889 10.8874 13.2514 11.2652C13.4139 11.6429 13.793 12.6144 13.8472 12.6684C13.9013 12.7763 13.9013 12.8843 13.8472 12.9922C13.793 13.1001 13.7388 13.2081 13.6305 13.316C13.5222 13.424 13.4139 13.5859 13.3597 13.6398C13.2514 13.7478 13.1431 13.8557 13.2514 14.0176C13.3597 14.2335 13.7388 14.8272 14.3346 15.3669C15.0928 16.0145 15.6885 16.2304 15.9052 16.3383C16.1218 16.4463 16.2301 16.3923 16.3384 16.2844C16.4467 16.1764 16.8259 15.7447 16.9342 15.5288C17.0425 15.3129 17.205 15.3669 17.3674 15.4209C17.5299 15.4748 18.5048 15.9606 18.6672 16.0685C18.8839 16.1764 18.9922 16.2304 19.0463 16.2844C19.1005 16.4463 19.1005 16.8241 18.938 17.2558Z" fill="white"/>
</svg>
