<svg width="216" height="36" viewBox="0 0 216 36" fill="none" xmlns="http://www.w3.org/2000/svg">
<path d="M31.9731 16.3058C29.377 16.3058 27.5479 15.7823 26.4269 14.6772C25.3058 13.6302 24.7748 11.8852 24.7748 9.50031V5.25411H30.144V8.8023C30.144 9.96564 30.321 10.78 30.616 11.3616C30.97 11.8852 31.56 12.176 32.5041 12.176C32.8581 12.176 33.2711 12.1178 33.8021 12.0597C34.2741 11.9433 34.6281 11.8852 34.7461 11.827V5.25411H40.1153V22.5879H34.7461V15.8987C34.5691 15.9568 34.1561 16.0732 33.4481 16.1313C32.7401 16.2477 32.2681 16.3058 31.9731 16.3058Z" fill="#E8A961"/>
<path d="M51.2667 10.0238H56.1049V22.5879H51.4437V15.8987H51.3847L47.6676 22.5879H42.8294V10.0238H47.4906V16.5385H47.5496L51.2667 10.0238Z" fill="#E8A961"/>
<path d="M71.8585 17.5274C71.6224 19.2142 70.9144 20.552 69.7344 21.4827C68.5543 22.4134 67.0203 22.8787 65.1912 22.8787C63.1261 22.8787 61.4741 22.2971 60.176 21.0755C58.878 19.854 58.229 18.3417 58.229 16.364C58.229 14.3863 58.878 12.7577 60.176 11.5362C61.4741 10.3146 63.1261 9.67481 65.2502 9.67481C67.0793 9.67481 68.6133 10.1401 69.7934 11.0708C70.9734 12.0015 71.6224 13.223 71.7994 14.7353H67.1383C67.0793 14.2118 66.8433 13.8628 66.5483 13.5138C66.1943 13.223 65.7812 13.0485 65.3092 13.0485C63.8932 13.0485 63.1851 14.1537 63.1851 16.3058C63.1851 18.2835 63.8932 19.2724 65.3092 19.2724C66.4303 19.2724 67.0793 18.6325 67.2563 17.411H71.8585V17.5274Z" fill="#E8A961"/>
<path d="M76.9326 13.6302H72.8615V10.0238H85.8419V13.6302H81.7708V22.5297H76.9326V13.6302Z" fill="#E8A961"/>
<path d="M100.592 22.5879H95.6363C95.5183 22.1807 95.4593 21.7735 95.4593 21.4245C94.3972 22.4715 93.0402 22.9951 91.3881 22.9951C89.9131 22.9951 88.792 22.6461 88.025 21.948C87.199 21.25 86.786 20.2612 86.786 19.0397C86.786 18.3999 86.904 17.8764 87.199 17.411C87.435 16.9457 87.73 16.5967 88.025 16.3058C88.32 16.0732 88.733 15.8405 89.4411 15.6078C90.0901 15.3752 90.5621 15.2588 90.8571 15.2588C91.1521 15.2007 91.6832 15.1425 92.5092 15.0262C92.5682 15.0262 92.5682 15.0262 92.5682 15.0262C92.5682 15.0262 92.6272 15.0262 92.6862 15.0262C92.7452 15.0262 92.7452 15.0262 92.8042 15.0262C92.8632 15.0262 93.0992 14.968 93.3942 14.968C93.6892 14.968 93.9252 14.9098 94.1022 14.9098C94.2792 14.8517 94.4562 14.7935 94.6923 14.7353C94.9283 14.6772 95.1053 14.5608 95.2233 14.3863C95.3413 14.2118 95.4003 14.0373 95.4003 13.8047C95.4003 13.0485 94.8693 12.6995 93.8072 12.6995C93.2172 12.6995 92.8042 12.8158 92.5092 12.9903C92.2732 13.1648 92.0962 13.5138 91.9782 13.9792H87.435C87.553 11.1871 89.6771 9.79114 93.8072 9.79114C97.0523 9.79114 99.0584 10.5473 99.8254 12.1178C100.061 12.5832 100.179 13.3393 100.179 14.3863C100.179 14.9098 100.179 15.6078 100.179 16.5967C100.179 17.5855 100.179 18.3999 100.179 19.0979C100.061 20.6684 100.238 21.8317 100.592 22.5879ZM95.3413 16.8293C94.9873 17.062 94.2202 17.2947 93.0992 17.5855C92.2142 17.76 91.7421 18.2254 91.7421 18.9234C91.7421 19.3305 91.8602 19.6214 92.0962 19.854C92.3322 20.0867 92.6862 20.203 93.0992 20.203C93.9842 20.203 94.6333 19.854 95.0463 19.2142C95.2233 18.8652 95.3413 18.3417 95.3413 17.6437V16.8293Z" fill="#E8A961"/>
<path d="M109.384 18.2835L107.083 22.5879H101.241L104.546 17.8764C103.661 17.5274 103.012 16.9457 102.599 16.2477C102.186 15.5497 102.009 14.7935 102.009 14.0955C102.009 12.874 102.481 11.8852 103.425 11.129C104.369 10.3728 105.726 10.0238 107.555 10.0238H114.989V22.5879H110.151V18.2835H109.384ZM110.151 15.4915V12.8158H108.794C107.614 12.8158 107.083 13.2812 107.083 14.1537C107.083 15.0843 107.673 15.4915 108.794 15.4915H110.151Z" fill="#E8A961"/>
<path d="M136.701 5.25411V22.5879H131.332V9.73297H126.258V22.5879H120.83V5.25411H136.701Z" fill="#E8A961"/>
<path d="M152.514 22.5879H147.558C147.44 22.1807 147.381 21.7735 147.381 21.4245C146.319 22.4715 144.962 22.9951 143.309 22.9951C141.834 22.9951 140.713 22.6461 139.946 21.948C139.12 21.25 138.707 20.2612 138.707 19.0397C138.707 18.3999 138.825 17.8764 139.12 17.411C139.356 16.9457 139.651 16.5967 139.946 16.3058C140.241 16.0732 140.654 15.8405 141.362 15.6078C142.011 15.3752 142.483 15.2588 142.778 15.2588C143.073 15.2007 143.604 15.1425 144.43 15.0262C144.49 15.0262 144.49 15.0262 144.49 15.0262C144.49 15.0262 144.548 15.0262 144.607 15.0262C144.666 15.0262 144.667 15.0262 144.725 15.0262C144.785 15.0262 145.021 14.968 145.316 14.968C145.611 14.968 145.847 14.9098 146.024 14.9098C146.201 14.8517 146.378 14.7935 146.614 14.7353C146.85 14.6772 147.027 14.5608 147.145 14.3863C147.263 14.2118 147.322 14.0373 147.322 13.8047C147.322 13.0485 146.791 12.6995 145.729 12.6995C145.139 12.6995 144.726 12.8158 144.43 12.9903C144.194 13.1648 144.017 13.5138 143.899 13.9792H139.356C139.474 11.1871 141.598 9.79114 145.729 9.79114C148.974 9.79114 150.98 10.5473 151.747 12.1178C151.983 12.5832 152.101 13.3393 152.101 14.3863C152.101 14.9098 152.101 15.6078 152.101 16.5967C152.101 17.5855 152.101 18.3999 152.101 19.0979C151.983 20.6684 152.16 21.8317 152.514 22.5879ZM147.322 16.8293C146.968 17.062 146.201 17.2947 145.08 17.5855C144.194 17.76 143.722 18.2254 143.722 18.9234C143.722 19.3305 143.84 19.6214 144.076 19.854C144.312 20.0867 144.667 20.203 145.08 20.203C145.965 20.203 146.614 19.854 147.027 19.2142C147.204 18.8652 147.322 18.3417 147.322 17.6437V16.8293Z" fill="#E8A961"/>
<path d="M159.004 14.7353H158.945L159.063 22.5879H154.579V10.0238H160.656L163.075 17.3529L165.494 10.0238H171.571V22.5879H167.087L167.205 14.7353H167.146L164.491 22.5879H161.6L159.004 14.7353Z" fill="#E8A961"/>
<path d="M181.071 18.2835L178.77 22.5879H172.928L176.233 17.8764C175.348 17.5274 174.699 16.9457 174.286 16.2477C173.873 15.5497 173.696 14.7935 173.696 14.0955C173.696 12.874 174.168 11.8852 175.112 11.129C176.056 10.3728 177.413 10.0238 179.242 10.0238H186.676V22.5879H181.838V18.2835H181.071ZM181.779 15.4915V12.8158H180.422C179.242 12.8158 178.711 13.2812 178.711 14.1537C178.711 15.0843 179.301 15.4915 180.422 15.4915H181.779Z" fill="#E8A961"/>
<path d="M192.458 13.6302H188.387V10.0238H201.367V13.6302H197.296V22.5297H192.458V13.6302Z" fill="#E8A961"/>
<path d="M216 18.1672C216 19.5632 215.587 20.6102 214.702 21.4245C213.817 22.1807 212.519 22.5879 210.808 22.5879H203.079V10.0238H207.917V13.921H210.926C212.637 13.921 213.876 14.27 214.761 15.0262C215.587 15.7823 216 16.8293 216 18.1672ZM210.985 18.2835C210.985 17.3528 210.454 16.8875 209.333 16.8875H207.858V19.6795H209.333C210.454 19.6214 210.985 19.156 210.985 18.2835Z" fill="#E8A961"/>
<path d="M9.16994 0.606624C8.72333 0.496099 8.26847 0.281247 7.82333 0.28421C6.00803 0.285118 4.80874 1.7271 5.09501 3.53527C5.43978 5.76498 5.79385 8.00139 6.14793 10.2378C6.49699 12.4425 6.84604 14.6472 7.19509 16.8519C7.22021 17.0105 7.23779 17.1215 7.07308 17.2279C6.07125 17.8844 5.68187 18.8129 5.83296 19.9756C5.87136 20.2703 6.03941 20.602 5.93383 20.8212C5.83504 21.0312 5.46012 21.1128 5.21986 21.2632C3.58642 22.3085 2.82117 23.7817 3.03943 25.6814C3.17262 26.8876 3.41182 28.0856 3.59335 29.2844C3.6486 29.6333 3.61574 29.947 3.32358 30.1865C2.81231 30.6056 2.05053 30.3808 1.84157 29.7385C1.7767 29.5373 1.70251 29.3293 1.5782 29.1696C1.31346 28.8526 0.890508 28.7872 0.521337 28.9573C0.152165 29.1273 -0.0597354 29.5089 0.0148683 29.928C0.194942 31.0133 0.60669 31.9982 1.31886 32.8479C2.91659 34.7564 4.98636 35.5289 7.46371 35.1751C10.4084 34.7501 13.3667 34.3067 16.3063 33.8499C18.9491 33.4465 20.6206 31.234 20.241 28.6278C19.9758 26.8489 19.6946 25.0725 19.3972 23.2985C19.0428 21.2165 17.4298 19.7326 15.3326 19.5167C15.1224 19.4919 15.0683 19.4108 15.0475 19.2272C14.9588 18.6153 14.8931 17.9918 14.5195 17.4559C14.1458 16.92 13.6633 16.5307 13.0337 16.3587C12.7651 16.2779 12.6967 16.1584 12.659 15.9205C11.9953 11.6764 11.3155 7.4348 10.6611 3.19742C10.528 2.35679 10.3448 1.56441 9.70255 0.947686C9.49589 0.841152 9.32825 0.720537 9.16994 0.606624ZM8.91854 33.1581C8.9153 33.0855 8.91279 33.0696 8.91959 33.0605C8.96218 32.9646 9.01157 32.8596 9.04485 32.7571C9.35334 31.9952 9.4516 31.2086 9.33033 30.3906C9.27435 29.9849 8.95448 29.6844 8.57306 29.6208C8.18234 29.5505 7.76733 29.7438 7.61058 30.1088C7.52111 30.3256 7.50363 30.58 7.53199 30.8112C7.59309 31.6141 7.35513 32.3002 6.82062 32.8854C6.42037 33.3282 5.95346 33.6106 5.3138 33.3753C4.98931 33.2542 4.64693 33.1765 4.34285 33.028C3.91592 32.8333 3.50688 32.5952 3.22101 32.2489C3.58338 32.088 3.94397 31.968 4.25047 31.7669C5.23618 31.1129 5.56539 30.1692 5.40321 29.0406C5.27692 28.1908 5.14131 27.3343 5.00644 26.5346C9.24458 25.8877 13.4827 25.2409 17.7208 24.594C17.9494 26.0374 18.199 27.51 18.4164 28.9875C18.5503 29.8849 18.2722 30.6827 17.6231 31.326C17.2222 31.712 16.7459 31.9878 16.1286 32.0495C16.5695 31.1863 16.7426 30.2989 16.6063 29.3856C16.5711 29.1636 16.4665 28.9196 16.3074 28.749C16.0477 28.4637 15.6781 28.4227 15.3158 28.5836C14.9466 28.7536 14.7544 29.051 14.7849 29.4525C14.8169 29.9674 14.8235 30.4781 14.6106 30.9573C14.2255 31.8608 13.5291 32.4138 12.5375 32.6139C12.53 32.5663 12.5182 32.5437 12.5318 32.5254C12.5676 32.4387 12.5965 32.3612 12.6323 32.2745C12.973 31.5077 13.0781 30.712 12.973 29.8914C12.9295 29.5651 12.7877 29.2943 12.4675 29.1483C11.8152 28.8336 11.0902 29.3097 11.148 30.04C11.1959 30.7069 11.1326 31.35 10.7618 31.9265C10.339 32.592 9.74468 33.0076 8.91854 33.1581ZM9.02609 16.6374C9.01855 16.5898 8.9992 16.5197 8.98915 16.4562C8.29355 12.0627 7.59544 7.65332 6.89985 3.2598C6.88227 3.14877 6.86469 3.03774 6.87254 2.93096C6.90781 2.26768 7.65222 1.86166 8.23318 2.19535C8.54229 2.37559 8.66126 2.65795 8.71399 2.99103C9.40959 7.38456 10.1027 11.7622 10.7983 16.1557C10.8108 16.235 10.8141 16.3077 10.8241 16.3711C10.2347 16.4529 9.64775 16.5506 9.02609 16.6374ZM4.88916 24.595C5.15098 23.4342 5.99198 22.6479 7.24892 22.4561C9.60845 22.0878 11.9705 21.7355 14.33 21.3672C14.4751 21.3451 14.6387 21.3363 14.7863 21.3301C15.7961 21.2978 16.8674 21.914 17.2075 22.7068C13.1144 23.3315 9.0145 23.9654 4.88916 24.595ZM13.2262 19.6595C11.3984 19.9465 9.59361 20.222 7.77267 20.4999C7.72495 20.1986 7.6561 19.868 7.6288 19.5391C7.60003 19.0968 7.8925 18.7029 8.35051 18.6249C9.58882 18.4196 10.8296 18.2302 12.073 18.0567C12.5657 17.9896 12.9594 18.2869 13.0669 18.7578C13.1401 19.0634 13.181 19.374 13.2262 19.6595Z" fill="#E8A961"/>
<path d="M25.7579 33.8491V32.8307C25.9565 32.913 26.1524 32.9542 26.3458 32.9542C26.5234 32.9542 26.6619 32.9104 26.7611 32.823C26.8604 32.7304 26.9101 32.6173 26.9101 32.4835C26.9101 32.4372 26.9048 32.391 26.8944 32.3447C26.8839 32.2984 26.8683 32.2469 26.8474 32.1904C26.8265 32.1338 26.8082 32.0901 26.7925 32.0592C26.7768 32.0232 26.7507 31.9718 26.7141 31.9049C26.6828 31.838 26.6619 31.7943 26.6514 31.7737L25.0134 28.379H26.3693L27.6311 31.2722L28.8695 28.379H30.1783L28.2973 32.4218C28.0308 32.9979 27.7644 33.4017 27.4979 33.6331C27.2314 33.8594 26.8787 33.9726 26.4398 33.9726C26.1942 33.9726 25.9669 33.9314 25.7579 33.8491Z" fill="#E8A961"/>
<path d="M40.4612 28.379L38.6664 31.0022L40.6258 33.8723H39.1602L37.9375 31.9666L36.6992 33.8723H35.3041L37.2713 31.0022L35.453 28.379H36.8795L37.9924 30.1458L39.1132 28.379H40.4612Z" fill="#E8A961"/>
<path d="M48.8239 28.2479C49.639 28.2479 50.2974 28.5153 50.799 29.0502C51.3058 29.58 51.5593 30.2744 51.5593 31.1334C51.5593 31.9923 51.3058 32.6867 50.799 33.2165C50.2974 33.7411 49.6364 34.0034 48.8161 34.0034C47.9905 34.0034 47.3243 33.7411 46.8175 33.2165C46.3107 32.6867 46.0572 31.9923 46.0572 31.1334C46.0572 30.2641 46.308 29.5672 46.8097 29.0425C47.3165 28.5127 47.9879 28.2479 48.8239 28.2479ZM48.8083 29.2354C48.3484 29.2354 47.9801 29.4051 47.7031 29.7446C47.4314 30.0841 47.2956 30.5393 47.2956 31.1102C47.2956 31.7017 47.4314 32.1646 47.7031 32.499C47.9748 32.8333 48.3484 33.003 48.8239 33.0082C49.289 33.0082 49.6547 32.8384 49.9212 32.499C50.1877 32.1595 50.3209 31.6966 50.3209 31.1102C50.3209 30.5341 50.1851 30.0789 49.9134 29.7446C49.6416 29.4051 49.2733 29.2354 48.8083 29.2354Z" fill="#E8A961"/>
<path d="M63.0047 35.2842H61.8212V33.8723H58.2786V35.2842H57.0951V32.8462H57.5184C57.8371 32.4244 58.0644 31.9229 58.2002 31.3417C58.3413 30.7553 58.4118 30.0455 58.4118 29.2123V28.379H62.3855V32.8462H63.0047V35.2842ZM61.1628 32.8462V29.3589H59.6267V29.4514C59.6267 30.8248 59.3785 31.9563 58.8821 32.8462H61.1628Z" fill="#E8A961"/>
<path d="M80.9265 28.379V33.8723H79.7038V30.0609H79.6803L77.5798 33.8723H76.2004V28.379H77.4231V32.1826H77.4466L79.5471 28.379H80.9265Z" fill="#E8A961"/>
<path d="M94.7954 33.8491V32.8307C94.994 32.913 95.1899 32.9542 95.3832 32.9542C95.5609 32.9542 95.6994 32.9104 95.7986 32.823C95.8979 32.7304 95.9476 32.6173 95.9476 32.4835C95.9476 32.4372 95.9423 32.391 95.9319 32.3447C95.9214 32.2984 95.9057 32.2469 95.8848 32.1904C95.864 32.1338 95.8457 32.0901 95.83 32.0592C95.8143 32.0232 95.7882 31.9718 95.7516 31.9049C95.7203 31.838 95.6994 31.7943 95.6889 31.7737L94.0508 28.379H95.4068L96.6686 31.2722L97.907 28.379H99.2158L97.3348 32.4218C97.0683 32.9979 96.8018 33.4017 96.5354 33.6331C96.2689 33.8594 95.9162 33.9726 95.4773 33.9726C95.2317 33.9726 95.0044 33.9314 94.7954 33.8491Z" fill="#E8A961"/>
<path d="M106.168 30.3541H107.626C108.216 30.3541 108.694 30.5033 109.06 30.8016C109.426 31.0948 109.608 31.5294 109.608 32.1055C109.608 32.6919 109.423 33.1342 109.052 33.4325C108.686 33.7257 108.19 33.8723 107.563 33.8723H104.953V28.379H109.091V29.3743H106.168V30.3541ZM108.417 32.0901C108.417 31.5654 108.098 31.3031 107.461 31.3031H106.168V32.8847H107.469C108.101 32.8847 108.417 32.6198 108.417 32.0901Z" fill="#E8A961"/>
<path d="M118.152 28.2479C118.967 28.2479 119.626 28.5153 120.127 29.0502C120.634 29.58 120.888 30.2744 120.888 31.1334C120.888 31.9923 120.634 32.6867 120.127 33.2165C119.626 33.7411 118.965 34.0034 118.144 34.0034C117.319 34.0034 116.653 33.7411 116.146 33.2165C115.639 32.6867 115.386 31.9923 115.386 31.1334C115.386 30.2641 115.636 29.5672 116.138 29.0425C116.645 28.5127 117.316 28.2479 118.152 28.2479ZM118.137 29.2354C117.677 29.2354 117.308 29.4051 117.031 29.7446C116.76 30.0841 116.624 30.5393 116.624 31.1102C116.624 31.7017 116.76 32.1646 117.031 32.499C117.303 32.8333 117.677 33.003 118.152 33.0082C118.617 33.0082 118.983 32.8384 119.25 32.499C119.516 32.1595 119.649 31.6966 119.649 31.1102C119.649 30.5341 119.513 30.0789 119.242 29.7446C118.97 29.4051 118.602 29.2354 118.137 29.2354Z" fill="#E8A961"/>
<path d="M126.909 28.379H129.316C129.943 28.379 130.439 28.5282 130.805 28.8265C131.176 29.1197 131.361 29.5594 131.361 30.1458C131.361 30.7219 131.178 31.1591 130.813 31.4574C130.447 31.7506 129.969 31.8972 129.378 31.8972H128.124V33.8723H126.909V28.379ZM128.124 29.3666V30.9482H129.214C129.851 30.9482 130.17 30.6859 130.17 30.1612C130.17 29.6315 129.854 29.3666 129.221 29.3666H128.124Z" fill="#E8A961"/>
<path d="M142.263 28.379L140.077 30.547L142.467 33.8723H140.931L139.238 31.4034L138.525 32.0978V33.8723H137.318V28.379H138.525V30.6627L140.719 28.379H142.263Z" fill="#E8A961"/>
<path d="M150.906 28.3713L153.03 33.8723H151.744L151.305 32.6456H149.228L148.774 33.8723H147.52L149.644 28.3713H150.906ZM151.008 31.766L150.271 29.7215L149.526 31.766H151.008Z" fill="#E8A961"/>
<path d="M166.024 33.8723V28.379H167.771L169.072 32.1518L170.342 28.379H172.051V33.8723H170.899V29.9684L169.527 33.8723H168.579L167.191 30.0069V33.8723H166.024Z" fill="#E8A961"/>
<path d="M180.831 28.2479C181.646 28.2479 182.304 28.5153 182.806 29.0502C183.312 29.58 183.566 30.2744 183.566 31.1334C183.566 31.9923 183.312 32.6867 182.806 33.2165C182.304 33.7411 181.643 34.0034 180.823 34.0034C179.997 34.0034 179.331 33.7411 178.824 33.2165C178.317 32.6867 178.064 31.9923 178.064 31.1334C178.064 30.2641 178.315 29.5672 178.816 29.0425C179.323 28.5127 179.995 28.2479 180.831 28.2479ZM180.815 29.2354C180.355 29.2354 179.987 29.4051 179.71 29.7446C179.438 30.0841 179.302 30.5393 179.302 31.1102C179.302 31.7017 179.438 32.1646 179.71 32.499C179.981 32.8333 180.355 33.003 180.831 33.0082C181.296 33.0082 181.661 32.8384 181.928 32.499C182.194 32.1595 182.328 31.6966 182.328 31.1102C182.328 30.5341 182.192 30.0789 181.92 29.7446C181.648 29.4051 181.28 29.2354 180.815 29.2354Z" fill="#E8A961"/>
<path d="M193.467 28.379V29.4051H190.803V33.8723H189.58V28.379H193.467Z" fill="#E8A961"/>
<path d="M203.979 28.379V33.8723H202.757V30.0609H202.733L200.633 33.8723H199.253V28.379H200.476V32.1826H200.499L202.6 28.379H203.979Z" fill="#E8A961"/>
<path d="M214.836 28.379V33.8723H213.613V29.4051H212.116L212.038 31.7352C211.986 33.2319 211.468 33.9803 210.486 33.9803C210.214 33.9803 209.985 33.9494 209.796 33.8877V32.9156C209.922 32.9773 210.066 33.0082 210.228 33.0082C210.421 33.0082 210.57 32.9233 210.674 32.7536C210.779 32.5787 210.839 32.2341 210.855 31.7197L210.949 28.379H214.836Z" fill="#E8A961"/>
</svg>
