<svg width="19" height="19" viewBox="0 0 19 19" fill="none" xmlns="http://www.w3.org/2000/svg">
<path d="M16.9004 8.24908H18.7338C18.7338 3.54658 15.1835 0 10.4746 0V1.83333C14.1981 1.83333 16.9004 4.53108 16.9004 8.24908Z" fill="#E8A961"/>
<path d="M9.64153 6.41347C11.5693 6.41347 12.3915 7.23572 12.3915 9.16347H14.2249C14.2249 6.20722 12.5978 4.58013 9.64153 4.58013V6.41347ZM12.7784 11.4029C12.6022 11.2428 12.3708 11.1574 12.1329 11.1648C11.8949 11.1721 11.6692 11.2716 11.5033 11.4423L9.3097 13.6982C8.7817 13.5974 7.7202 13.2665 6.62753 12.1766C5.53487 11.083 5.20395 10.0187 5.10587 9.49438L7.35995 7.29988C7.53083 7.13408 7.63049 6.9083 7.63785 6.67032C7.64521 6.43234 7.55968 6.20084 7.39937 6.0248L4.01228 2.30038C3.85191 2.12379 3.62901 2.01668 3.39092 2.00179C3.15284 1.9869 2.91833 2.0654 2.7372 2.22063L0.748035 3.92655C0.589553 4.08561 0.494961 4.2973 0.482201 4.52147C0.468451 4.75063 0.206285 10.1791 4.41562 14.3903C8.08778 18.0616 12.6876 18.3301 13.9545 18.3301C14.1396 18.3301 14.2533 18.3246 14.2835 18.3228C14.5077 18.3103 14.7192 18.2152 14.8775 18.056L16.5825 16.066C16.7379 15.885 16.8165 15.6505 16.8018 15.4124C16.7871 15.1744 16.6802 14.9514 16.5037 14.7909L12.7784 11.4029Z" fill="#E8A961"/>
</svg>
