<svg width="19" height="19" viewBox="0 0 19 19" fill="none" xmlns="http://www.w3.org/2000/svg">
<path d="M16.4258 8.24908H18.2592C18.2592 3.54658 14.7089 0 10 0V1.83333C13.7235 1.83333 16.4258 4.53108 16.4258 8.24908Z" fill="#E8A961"/>
<path d="M9.16693 6.41347C11.0947 6.41347 11.9169 7.23572 11.9169 9.16347H13.7503C13.7503 6.20722 12.1232 4.58013 9.16693 4.58013V6.41347ZM12.3038 11.4029C12.1276 11.2428 11.8962 11.1574 11.6582 11.1648C11.4203 11.1721 11.1946 11.2716 11.0287 11.4423L8.83509 13.6982C8.30709 13.5974 7.24559 13.2665 6.15293 12.1766C5.06026 11.083 4.72934 10.0187 4.63126 9.49438L6.88534 7.29988C7.05622 7.13408 7.15588 6.9083 7.16324 6.67032C7.1706 6.43234 7.08507 6.20084 6.92476 6.0248L3.53768 2.30038C3.3773 2.12379 3.1544 2.01668 2.91632 2.00179C2.67823 1.9869 2.44372 2.0654 2.26259 2.22063L0.273425 3.92655C0.114944 4.08561 0.0203514 4.2973 0.0075918 4.52147C-0.0061582 4.75063 -0.268325 10.1791 3.94101 14.3903C7.61317 18.0616 12.213 18.3301 13.4798 18.3301C13.665 18.3301 13.7787 18.3246 13.8089 18.3228C14.0331 18.3103 14.2446 18.2152 14.4029 18.056L16.1079 16.066C16.2633 15.885 16.3419 15.6505 16.3272 15.4124C16.3125 15.1744 16.2055 14.9514 16.0291 14.7909L12.3038 11.4029Z" fill="#E8A961"/>
</svg>
