<svg width="31" height="30" viewBox="0 0 31 30" fill="none" xmlns="http://www.w3.org/2000/svg">
<circle cx="15.4087" cy="14.8032" r="14.8032" fill="#2F89CE"/>
<path d="M7.5252 15.0805L10.9285 16.3495L12.2552 20.6181C12.3129 20.9065 12.659 20.9642 12.8898 20.7911L14.7933 19.2337C14.9664 19.0606 15.2548 19.0606 15.4855 19.2337L18.8888 21.7141C19.1196 21.8871 19.4657 21.7718 19.5233 21.4833L22.0614 9.36984C22.1191 9.08142 21.8307 8.793 21.5423 8.90837L7.5252 14.3306C7.1791 14.446 7.1791 14.9651 7.5252 15.0805ZM12.0822 15.715L18.7735 11.6195C18.8888 11.5618 19.0042 11.7349 18.8888 11.7925L13.4089 16.9264C13.2359 17.0994 13.0628 17.3301 13.0628 17.6186L12.8898 19.003C12.8898 19.176 12.6013 19.2337 12.5437 19.003L11.8515 16.4649C11.6784 16.1765 11.7938 15.8304 12.0822 15.715Z" fill="white"/>
</svg>
