<svg width="30" height="30" viewBox="0 0 30 30" fill="none" xmlns="http://www.w3.org/2000/svg">
<circle cx="15.0142" cy="14.8032" r="14.8032" fill="#7C509A"/>
<path d="M19.6418 7.80592C16.8207 7.26717 13.8911 7.26717 11.0699 7.80592C9.82212 8.0753 8.2488 9.5838 7.97753 10.7691C7.48926 13.0857 7.48926 15.4562 7.97753 17.7728C8.30305 18.9581 9.87637 20.4666 11.0699 20.736C11.1242 20.736 11.1784 20.7898 11.1784 20.8437V24.2378C11.1784 24.3995 11.3954 24.5072 11.504 24.3456L13.1315 22.6755C13.1315 22.6755 14.4336 21.3286 14.6506 21.1131C14.6506 21.1131 14.7049 21.0592 14.7591 21.0592C16.3867 21.1131 18.0685 20.9515 19.6961 20.6821C20.9439 20.4127 22.5172 18.9042 22.7885 17.719C23.2768 15.4023 23.2768 13.0318 22.7885 10.7152C22.463 9.5838 20.8897 8.0753 19.6418 7.80592ZM19.6961 17.9345C19.4248 18.4732 19.0993 18.9042 18.5568 19.1736C18.394 19.2275 18.2313 19.2813 18.0685 19.3352C17.8515 19.2813 17.6888 19.2275 17.526 19.1736C15.7899 18.4732 14.1623 17.5035 12.8603 16.1027C12.155 15.2946 11.5582 14.3787 11.0699 13.4089C10.8529 12.9241 10.6359 12.4931 10.4732 12.0082C10.3104 11.5772 10.5817 11.1462 10.8529 10.8229C11.1242 10.4997 11.4497 10.2842 11.8295 10.1226C12.1007 9.96093 12.372 10.0687 12.589 10.2842C13.023 10.8229 13.457 11.3617 13.7826 11.9543C13.9996 12.3314 13.9453 12.7624 13.5656 13.0318C13.457 13.0857 13.4028 13.1396 13.2943 13.2473C13.24 13.3012 13.1315 13.3551 13.0773 13.4628C12.9688 13.6244 12.9688 13.7861 13.023 13.9477C13.457 15.1868 14.2708 16.1566 15.5186 16.6953C15.7357 16.8031 15.8984 16.8569 16.1697 16.8569C16.5494 16.8031 16.7122 16.3721 16.9835 16.1566C17.2547 15.9411 17.5802 15.9411 17.9058 16.1027C18.177 16.2643 18.4483 16.4798 18.7738 16.6953C19.0451 16.9108 19.3163 17.0724 19.5876 17.288C19.7503 17.3957 19.8046 17.6651 19.6961 17.9345ZM17.4175 13.8938C17.309 13.8938 17.3632 13.8938 17.4175 13.8938C17.2005 13.8938 17.1462 13.7861 17.092 13.6244C17.092 13.5167 17.092 13.3551 17.0377 13.2473C16.9835 13.0318 16.875 12.8163 16.658 12.6547C16.5494 12.6008 16.4409 12.5469 16.3324 12.4931C16.1697 12.4392 16.0612 12.4392 15.8984 12.4392C15.7357 12.3853 15.6814 12.2776 15.6814 12.1159C15.6814 12.0082 15.8442 11.9004 15.9527 11.9004C16.8207 11.9543 17.4717 12.4392 17.5802 13.4628C17.5802 13.5167 17.5802 13.6244 17.5802 13.6783C17.5802 13.7861 17.526 13.8938 17.4175 13.8938ZM16.875 11.5233C16.6037 11.4156 16.3324 11.3078 16.0069 11.2539C15.8984 11.2539 15.7357 11.2001 15.6272 11.2001C15.4644 11.2001 15.3559 11.0923 15.4101 10.9307C15.4101 10.7691 15.5186 10.6613 15.6814 10.7152C16.2239 10.7691 16.7122 10.8768 17.2005 11.0923C18.177 11.5772 18.7196 12.3853 18.8823 13.4628C18.8823 13.5167 18.8823 13.5706 18.8823 13.6244C18.8823 13.7322 18.8823 13.8399 18.8823 14.0016C18.8823 14.0554 18.8823 14.1093 18.8823 14.1632C18.8281 14.3787 18.4483 14.4326 18.394 14.1632C18.394 14.1093 18.3398 14.0016 18.3398 13.9477C18.3398 13.4628 18.2313 12.9779 18.0143 12.5469C17.6888 12.0621 17.309 11.7388 16.875 11.5233ZM19.8046 14.7558C19.6418 14.7558 19.5333 14.5942 19.5333 14.4326C19.5333 14.1093 19.4791 13.7861 19.4248 13.4628C19.2078 11.7388 17.7973 10.3381 16.1154 10.0687C15.8442 10.0148 15.5729 10.0148 15.3559 9.96093C15.1931 9.96093 14.9761 9.96093 14.9219 9.74543C14.8676 9.5838 15.0304 9.42217 15.1931 9.42217C15.2474 9.42217 15.3016 9.42217 15.3016 9.42217C15.4101 9.42217 17.526 9.47605 15.3016 9.42217C17.5802 9.47605 19.4791 10.9846 19.8589 13.2473C19.9131 13.6244 19.9674 14.0016 19.9674 14.4326C20.0759 14.5942 19.9674 14.7558 19.8046 14.7558Z" fill="white"/>
</svg>
