<svg width="29" height="10" viewBox="0 0 29 10" fill="none" xmlns="http://www.w3.org/2000/svg">
<path d="M26.9812 0.659668H25.1791C24.6343 0.659668 24.2153 0.8273 23.9638 1.37211L20.5273 9.20893H22.958C22.958 9.20893 23.3771 8.16122 23.4609 7.90977C23.7124 7.90977 26.1011 7.90977 26.4364 7.90977C26.5202 8.20313 26.7297 9.16702 26.7297 9.16702H28.909L26.9812 0.659668ZM24.1314 6.14963C24.341 5.64673 25.0534 3.76087 25.0534 3.76087C25.0534 3.80278 25.263 3.25797 25.3468 2.96461L25.5144 3.71896C25.5144 3.71896 25.9754 5.77246 26.0592 6.19154H24.1314V6.14963Z" fill="#3362AB"/>
<path d="M20.6946 6.40132C20.6946 8.16146 19.1021 9.33489 16.6296 9.33489C15.5818 9.33489 14.5761 9.12535 14.0312 8.8739L14.3665 6.94612L14.6599 7.07185C15.4142 7.40711 15.9171 7.53284 16.8391 7.53284C17.5096 7.53284 18.2221 7.28139 18.2221 6.69467C18.2221 6.3175 17.9287 6.06605 17.0067 5.64697C16.1267 5.22789 14.9532 4.55736 14.9532 3.34202C14.9532 1.6657 16.5876 0.53418 18.8926 0.53418C19.7727 0.53418 20.527 0.701812 20.988 0.911353L20.6527 2.75531L20.4851 2.58768C20.066 2.42005 19.5212 2.25241 18.725 2.25241C17.8449 2.29432 17.4258 2.67149 17.4258 3.00676C17.4258 3.38393 17.9287 3.67729 18.725 4.05446C20.066 4.68308 20.6946 5.39552 20.6946 6.40132Z" fill="#3362AB"/>
<path d="M0.244141 0.743804L0.286049 0.576172H3.89015C4.39304 0.576172 4.77022 0.743804 4.89594 1.28861L5.6922 5.06034C4.89594 3.04875 3.05198 1.41433 0.244141 0.743804Z" fill="#F9B50B"/>
<path d="M10.7628 0.659584L7.11681 9.16693H4.64423L2.54883 2.04255C4.05752 3.00644 5.31476 4.51513 5.77575 5.56283L6.0272 6.4429L8.29024 0.617676H10.7628V0.659584Z" fill="#3362AB"/>
<path d="M11.7265 0.617676H14.0315L12.5647 9.16693H10.2598L11.7265 0.617676Z" fill="#3362AB"/>
</svg>
