<svg width="38" height="38" viewBox="0 0 38 38" fill="none" xmlns="http://www.w3.org/2000/svg">
<circle cx="18.8614" cy="18.8614" r="18.8614" fill="#2F89CE"/>
<path d="M8.81706 19.2147L13.1534 20.8317L14.8438 26.2704C14.9173 26.6379 15.3583 26.7114 15.6523 26.4909L18.0777 24.5065C18.2982 24.286 18.6657 24.286 18.9596 24.5065L23.296 27.6669C23.5899 27.8874 24.0309 27.7404 24.1044 27.3729L27.3383 11.9385C27.4118 11.5711 27.0443 11.2036 26.6768 11.3506L8.81706 18.2593C8.37608 18.4063 8.37608 19.0677 8.81706 19.2147ZM14.6233 20.0232L23.149 14.8049C23.2959 14.7314 23.443 14.9519 23.296 15.0254L16.3138 21.5666C16.0933 21.7871 15.8728 22.0811 15.8728 22.4486L15.6523 24.2125C15.6523 24.433 15.2848 24.5065 15.2113 24.2125L14.3293 20.9787C14.1088 20.6112 14.2559 20.1702 14.6233 20.0232Z" fill="white"/>
</svg>
