<svg width="37" height="37" viewBox="0 0 37 37" fill="none" xmlns="http://www.w3.org/2000/svg">
<circle cx="18.5" cy="18.5" r="18.5" fill="#4E6297"/>
<path d="M26.8285 12.7825C26.8285 11.3974 25.6064 10.1753 24.2213 10.1753H13.7108C12.3257 10.1753 11.1035 11.3974 11.1035 12.7825V23.293C11.1035 24.6781 12.3257 25.9003 13.7108 25.9003H19.0068V19.9525H17.0513V17.3452H19.0068V16.286C19.0068 14.4936 20.3104 12.9455 21.9399 12.9455H24.0583V15.5527H21.9399C21.6955 15.5527 21.4511 15.7972 21.4511 16.286V17.3452H24.0583V19.9525H21.4511V25.9003H24.2213C25.6064 25.9003 26.8285 24.6781 26.8285 23.293V12.7825Z" fill="white"/>
</svg>
