<svg width="38" height="38" viewBox="0 0 38 38" fill="none" xmlns="http://www.w3.org/2000/svg">
<circle cx="18.8614" cy="18.8614" r="18.8614" fill="#7C509A"/>
<path d="M24.7583 9.94599C21.1638 9.25954 17.431 9.25954 13.8364 9.94599C12.2466 10.2892 10.2419 12.2113 9.89629 13.7214C9.27415 16.6732 9.27415 19.6935 9.89629 22.6453C10.311 24.1554 12.3157 26.0775 13.8364 26.4207C13.9056 26.4207 13.9747 26.4894 13.9747 26.558V30.8826C13.9747 31.0886 14.2512 31.2258 14.3895 31.0199L16.4632 28.8919C16.4632 28.8919 18.1222 27.1758 18.3987 26.9012C18.3987 26.9012 18.4679 26.8326 18.537 26.8326C20.6108 26.9012 22.7537 26.6953 24.8274 26.3521C26.4173 26.0089 28.4219 24.0868 28.7676 22.5766C29.3897 19.6249 29.3897 16.6045 28.7676 13.6528C28.3528 12.2113 26.3482 10.2892 24.7583 9.94599ZM24.8274 22.8512C24.4818 23.5376 24.067 24.0868 23.3758 24.43C23.1684 24.4987 22.961 24.5673 22.7537 24.636C22.4771 24.5673 22.2698 24.4987 22.0624 24.43C19.8504 23.5376 17.7766 22.302 16.1176 20.5173C15.219 19.4876 14.4586 18.3206 13.8364 17.085C13.5599 16.4672 13.2834 15.9181 13.0761 15.3003C12.8687 14.7511 13.2143 14.202 13.5599 13.7901C13.9056 13.3782 14.3203 13.1036 14.8042 12.8977C15.1498 12.6918 15.4955 12.8291 15.772 13.1036C16.325 13.7901 16.878 14.4765 17.2927 15.2316C17.5692 15.7121 17.5001 16.2613 17.0162 16.6045C16.878 16.6732 16.8088 16.7418 16.6706 16.8791C16.6015 16.9477 16.4632 17.0164 16.3941 17.1537C16.2558 17.3596 16.2558 17.5655 16.325 17.7715C16.878 19.3503 17.9149 20.5859 19.5047 21.2724C19.7812 21.4097 19.9886 21.4783 20.3343 21.4783C20.8181 21.4097 21.0255 20.8605 21.3711 20.5859C21.7168 20.3113 22.1315 20.3113 22.5463 20.5173C22.8919 20.7232 23.2375 20.9978 23.6523 21.2724C23.9979 21.5469 24.3435 21.7529 24.6892 22.0275C24.8965 22.1647 24.9657 22.508 24.8274 22.8512ZM21.9241 17.7028C21.7859 17.7028 21.855 17.7028 21.9241 17.7028C21.6476 17.7028 21.5785 17.5656 21.5094 17.3596C21.5094 17.2223 21.5094 17.0164 21.4403 16.8791C21.3711 16.6045 21.2329 16.3299 20.9564 16.124C20.8181 16.0554 20.6799 15.9867 20.5416 15.9181C20.3343 15.8494 20.196 15.8494 19.9886 15.8494C19.7812 15.7808 19.7121 15.6435 19.7121 15.4376C19.7121 15.3003 19.9195 15.163 20.0578 15.163C21.1638 15.2316 21.9933 15.8494 22.1315 17.1537C22.1315 17.2223 22.1315 17.3596 22.1315 17.4283C22.1315 17.5655 22.0624 17.7028 21.9241 17.7028ZM21.2329 14.6825C20.8873 14.5452 20.5416 14.4079 20.1269 14.3392C19.9886 14.3392 19.7812 14.2706 19.643 14.2706C19.4356 14.2706 19.2974 14.1333 19.3665 13.9274C19.3665 13.7214 19.5047 13.5842 19.7121 13.6528C20.4034 13.7214 21.0255 13.8587 21.6476 14.1333C22.8919 14.7511 23.5832 15.7808 23.7905 17.1537C23.7905 17.2223 23.7905 17.291 23.7905 17.3596C23.7905 17.4969 23.7905 17.6342 23.7905 17.8401C23.7905 17.9088 23.7905 17.9774 23.7905 18.0461C23.7214 18.3206 23.2375 18.3893 23.1684 18.0461C23.1684 17.9774 23.0993 17.8401 23.0993 17.7715C23.0993 17.1537 22.961 16.5359 22.6845 15.9867C22.2698 15.3689 21.7859 14.9571 21.2329 14.6825ZM24.9657 18.8012C24.7583 18.8012 24.62 18.5952 24.62 18.3893C24.62 17.9774 24.5509 17.5655 24.4818 17.1537C24.2053 14.957 22.408 13.1723 20.2651 12.8291C19.9195 12.7604 19.5739 12.7604 19.2974 12.6918C19.09 12.6918 18.8135 12.6918 18.7444 12.4172C18.6752 12.2113 18.8826 12.0053 19.09 12.0053C19.1591 12.0053 19.2282 12.0053 19.2282 12.0053C19.3665 12.0053 22.0624 12.074 19.2282 12.0053C22.1315 12.074 24.5509 13.996 25.0348 16.8791C25.1039 17.3596 25.173 17.8401 25.173 18.3893C25.3113 18.5952 25.173 18.8012 24.9657 18.8012Z" fill="white"/>
</svg>
