<svg width="38" height="38" viewBox="0 0 38 38" fill="none" xmlns="http://www.w3.org/2000/svg">
<circle cx="18.8614" cy="19.0196" r="18.8614" fill="#48C95F"/>
<path d="M26.3379 11.5341C24.4748 9.67748 21.9906 8.646 19.3684 8.646C13.917 8.646 9.50064 13.047 9.50064 18.4795C9.50064 20.1986 9.98368 21.9178 10.8117 23.3618L9.43164 28.4505L14.676 27.0752C16.1251 27.8316 17.7123 28.2442 19.3684 28.2442C24.8198 28.2442 29.2361 23.8432 29.2361 18.4107C29.1671 15.8664 28.201 13.3908 26.3379 11.5341ZM24.1297 21.9865C23.9227 22.5366 22.9567 23.0868 22.4736 23.1555C22.0596 23.2243 21.5075 23.2243 20.9555 23.0868C20.6105 22.9492 20.1274 22.8117 19.5754 22.5366C17.0912 21.5052 15.5041 19.0296 15.3661 18.8233C15.2281 18.6858 14.331 17.5168 14.331 16.279C14.331 15.0412 14.9521 14.4911 15.1591 14.216C15.3661 13.9409 15.6421 13.9409 15.8491 13.9409C15.9871 13.9409 16.1941 13.9409 16.3322 13.9409C16.4702 13.9409 16.6772 13.8722 16.8842 14.3535C17.0912 14.8349 17.5743 16.0727 17.6433 16.1414C17.7123 16.279 17.7123 16.4165 17.6433 16.554C17.5743 16.6916 17.5052 16.8291 17.3672 16.9666C17.2292 17.1042 17.0912 17.3105 17.0222 17.3792C16.8842 17.5168 16.7462 17.6543 16.8842 17.8606C17.0222 18.1356 17.5052 18.8921 18.2643 19.5797C19.2304 20.4049 19.9894 20.68 20.2655 20.8175C20.5415 20.955 20.6795 20.8863 20.8175 20.7487C20.9555 20.6112 21.4385 20.0611 21.5766 19.786C21.7146 19.511 21.9216 19.5797 22.1286 19.6485C22.3356 19.7173 23.5777 20.3361 23.7847 20.4737C24.0607 20.6112 24.1987 20.68 24.2678 20.7487C24.3368 20.955 24.3368 21.4364 24.1297 21.9865Z" fill="white"/>
</svg>
