<svg width="46" height="14" viewBox="0 0 46 14" fill="none" xmlns="http://www.w3.org/2000/svg">
<path d="M46.001 13.7155H0.136719V0.314453H46.001V13.7155Z" fill="#13110C"/>
<path d="M16.4129 2.87988C15.3514 2.87988 14.7322 3.32216 14.7322 4.07403C14.7322 4.56054 14.9534 4.91436 15.4841 5.04705L16.5014 5.35664C16.634 5.40087 16.7667 5.48932 16.7667 5.62201C16.7667 5.79892 16.634 5.9316 16.4129 5.9316C16.2802 5.9316 16.1918 5.88737 16.1475 5.79892C16.1033 5.71046 16.0591 5.62201 16.0591 5.53355H14.6438C14.6438 6.50656 15.4841 6.77193 16.3687 6.77193C17.4301 6.77193 18.1378 6.37388 18.1378 5.48932C18.1378 5.04705 17.9166 4.69322 17.4744 4.51631C17.1205 4.3394 16.5898 4.25095 16.3244 4.16249C16.1918 4.11826 16.1033 4.07403 16.1033 3.94135C16.1033 3.80867 16.1918 3.72021 16.4571 3.72021C16.634 3.72021 16.7667 3.80867 16.7667 4.02981H18.0936C18.0051 3.14525 17.3417 2.87988 16.4129 2.87988ZM36.5808 2.87988V11.062H37.0231V2.87988H36.5808ZM41.2247 2.92411C40.9594 2.92411 40.7382 3.14525 40.7382 3.41062C40.7382 3.67598 40.9594 3.89712 41.2247 3.89712C41.4901 3.89712 41.7112 3.67598 41.7112 3.41062C41.7554 3.14525 41.5343 2.92411 41.2247 2.92411ZM4.51562 2.96834L5.31172 6.68348H6.90392L7.25774 4.29517L7.61157 6.68348H9.20376L9.99987 2.96834H8.67304L8.36344 5.26818L8.00962 2.96834H6.50588L6.15205 5.26818L5.79823 2.96834H4.51562ZM10.8402 2.96834V6.68348H13.6708V5.71046H12.2113V5.31241H13.4939V4.3394H12.2113V3.94135H13.6265V2.96834H10.8402ZM18.9781 2.96834V3.94135H19.9069V6.63925H21.3664V3.94135H22.2952V2.96834H18.9781ZM23.224 2.96834V6.68348H26.0988V5.71046H24.6393V5.31241H25.9219V4.3394H24.6393V3.94135H26.0546V2.96834H23.224ZM27.1603 2.96834V6.68348H28.5756V5.35664H28.7525C28.9736 5.35664 29.0621 5.4451 29.1063 5.62201C29.1505 5.9316 29.1947 6.41811 29.2832 6.68348H30.6985C30.5216 6.10851 30.5658 5.62201 30.4773 5.26818C30.3889 5.00282 30.212 4.82591 29.8582 4.78168C30.3889 4.649 30.61 4.3394 30.61 3.89712C30.61 3.18948 30.1235 2.96834 29.3717 2.96834H27.1603ZM31.76 2.96834V6.68348H32.9541V4.42786L33.7502 6.68348H35.5193V2.96834H34.3252V5.17973L33.5291 2.96834H31.76ZM39.8979 2.96834V11.062H40.3402V2.96834H39.8979ZM41.2247 2.96834C41.4459 2.96834 41.6228 3.14525 41.6228 3.41062C41.6228 3.63176 41.4459 3.85289 41.2247 3.85289C41.0036 3.85289 40.8267 3.67598 40.8267 3.41062C40.8267 3.18948 41.0036 2.96834 41.2247 2.96834ZM41.0478 3.14525V3.67598H41.1363V3.45484H41.2689L41.4016 3.72021H41.4901L41.3132 3.45484C41.4016 3.45484 41.4901 3.41062 41.4901 3.32216C41.4901 3.23371 41.4458 3.18948 41.3132 3.18948H41.0478V3.14525ZM41.1363 3.18948H41.2689C41.3574 3.18948 41.4016 3.18948 41.4016 3.27793C41.4016 3.41062 41.2689 3.36639 41.2247 3.36639H41.1363V3.18948ZM28.6198 3.80867H28.7525C29.0178 3.80867 29.239 3.85289 29.239 4.11826C29.239 4.38363 29.0178 4.51631 28.7525 4.51631H28.6198V3.80867ZM28.7525 7.30266C27.4699 7.30266 26.8507 8.09877 26.8507 9.24869C26.8507 10.3986 27.4699 11.1947 28.7525 11.1947C30.0351 11.1947 30.6543 10.3986 30.6543 9.24869C30.6543 8.09877 30.0351 7.30266 28.7525 7.30266ZM14.5996 7.39112V9.86788C14.5996 10.7524 15.2188 11.1947 16.3687 11.1947C17.4744 11.1947 18.1378 10.7524 18.1378 9.86788V7.39112H16.6783V9.77942C16.6783 10.089 16.5456 10.1775 16.3687 10.1775C16.1918 10.1775 16.0591 10.0448 16.0591 9.77942V7.39112H14.5996ZM19.3319 7.39112V11.1063H20.5261V8.85064L21.3222 11.1063H23.0913V7.39112H21.8972V9.64674L21.1011 7.39112H19.3319ZM24.2855 7.39112V11.1063H25.745V7.39112H24.2855ZM31.76 7.39112V11.1063H32.9541V8.85064L33.7502 11.1063H35.5193V7.39112H34.3252V9.64674L33.5291 7.39112H31.76ZM28.7525 8.27568C28.9736 8.27568 29.1505 8.40836 29.1505 9.24869C29.1505 10.089 28.9736 10.2217 28.7525 10.2217C28.5313 10.2217 28.3544 10.089 28.3544 9.24869C28.3544 8.40836 28.5313 8.27568 28.7525 8.27568Z" fill="#FFDF27"/>
</svg>
