<svg width="30" height="30" viewBox="0 0 30 30" fill="none" xmlns="http://www.w3.org/2000/svg">
<circle cx="15.0001" cy="15.0001" r="15.0001" fill="#F40000"/>
<path d="M21.5349 14.1849C21.5349 13.894 21.4864 13.5546 21.4864 13.1667C21.438 12.7788 21.3895 12.3909 21.341 12.0515C21.244 11.6636 21.0985 11.3727 20.8076 11.1303C20.5652 10.8879 20.2258 10.7424 19.8864 10.6939C18.7713 10.5485 17.1228 10.5 14.8925 10.5C12.6621 10.5 10.9652 10.5485 9.89849 10.6939C9.55909 10.7424 9.2197 10.8879 8.97728 11.1303C8.73485 11.3727 8.54091 11.6636 8.44394 12.0515C8.34697 12.3909 8.29849 12.7303 8.29849 13.1667C8.25 13.5546 8.25 13.894 8.25 14.1849C8.25 14.4758 8.25 14.8152 8.25 15.3C8.25 15.7849 8.25 16.1728 8.25 16.4152C8.25 16.7061 8.29849 17.0455 8.29849 17.4334C8.34697 17.8212 8.39545 18.2091 8.44394 18.5485C8.54091 18.9364 8.68637 19.2273 8.97728 19.4697C9.2197 19.7122 9.55909 19.8576 9.89849 19.9061C11.0136 20.0516 12.6621 20.1 14.8925 20.1C17.1228 20.1 18.8197 20.0516 19.8864 19.9061C20.2258 19.8576 20.5652 19.7122 20.8076 19.4697C21.0501 19.2273 21.244 18.9364 21.341 18.5485C21.4379 18.2091 21.4864 17.8697 21.4864 17.4334C21.5349 17.0455 21.5349 16.7061 21.5349 16.4152C21.5349 16.1243 21.5349 15.7849 21.5349 15.3C21.5349 14.8152 21.5349 14.4273 21.5349 14.1849ZM17.4622 15.6879L13.6318 18.0637C13.5834 18.1122 13.4864 18.1606 13.3894 18.1606C13.2925 18.1606 13.244 18.1606 13.147 18.1122C13.0015 18.0152 12.9046 17.8697 12.9046 17.6758V12.8758C12.9046 12.6818 13.0015 12.5364 13.147 12.4394C13.2925 12.3424 13.4864 12.3424 13.6318 12.4394L17.4622 14.8152C17.6076 14.9121 17.7046 15.0576 17.7046 15.2031C17.7046 15.3485 17.6076 15.5909 17.4622 15.6879Z" fill="white"/>
</svg>
